<svg id="Capa_1" data-name="Capa 1" xmlns="http://www.w3.org/2000/svg" viewBox="0 0 518.05 397.36"><defs><style>.cls-1{fill:#e7e7e7;}.cls-2{fill:#313143;}.cls-3{fill:#4d4b62;}.cls-4{fill:#a8c358;}.cls-5{fill:#eddaa6;}.cls-6{fill:#a1646c;}.cls-7{fill:#b5136a;}.cls-8{fill:#e9ad65;}</style></defs><path class="cls-1" d="M433.15,190.57c7,0,7.41-.62,5.21-7.25-1.89-5.67-4.13-11.24-5.58-17-1.35-5.37-5-7.55-9.72-8.95-8.26-2.44-16-.26-23.5,2.87-2.79,1.16-5.39,2.79-8.14,4.08-6.84,3.2-9.87,9.18-12,15.94-1.29,4-2.95,7.91-4.49,11.84-.57,1.45-.79,2.81.49,4,2.94,1.11,5.9,2.19,8.84,3.34.69.27,1.67.34,1.61,1.48.73,8.76,1,17.54,1.22,26.33.1,3.83.52,7.66.46,11.51a7.11,7.11,0,0,0,1.19,3.32c2.35,1.53,4.83,1.42,7.38.6,4.26-1.37,7.85-3.89,11.34-6.59s6.26-5.91,9.27-9c1.49-1.53,3.06-3.42,5.65-1.82-.13-2.48-.31-4.95-.38-7.43q-.36-12.81-.66-25.62c0-.93-.11-2.09,1.19-2.07C426.05,190.23,429.63,189.54,433.15,190.57Z"/><path class="cls-2" d="M422.35,225.29c-2.59-1.6-4.16.29-5.65,1.82-3,3.08-5.85,6.34-9.27,9s-7.08,5.22-11.34,6.59c-2.55.82-5,.93-7.38-.6q7.17,36.18,14.37,72.35c.37,1.9.25,4.19,2.78,4.92,2.54-.27,5-1.23,7.57-1.16,2.14-.79,2.74-2.25,2.44-4.51-.64-4.92-1-9.87-1.52-14.81q-1.56-15.51-3.13-31c-.12-1.23-.25-2.54,1.27-3,1.67-.47,2.21.83,2.72,2,.17.42.36.84.54,1.27q10,23.26,19.94,46.53c.74,1.74,1.4,3.54,3.9,2.86,2.41-1.57,5.75-1.49,7.48-4.24.46-1.17-.19-2.17-.53-3.18-4.17-12.62-8.24-25.28-12.66-37.81-2.12-6-2.3-12.23-3.19-18.38-.58-4-1-8-1.53-12-.74,0-1.47,0-2.2-.07-4-.28-6.87-3.77-5.55-7.45C422.53,231.38,422.31,228.37,422.35,225.29Z"/><path class="cls-3" d="M47.49,70.21c0-4.4.75-5.15,5.1-5.15H211.8c4.44,0,5.13.67,5.13,5.11v165c0,4.46-.69,5.16-5.09,5.16H52.63c-4.38,0-5.14-.75-5.14-5.12v-165Zm1.15,165c0,3.72.24,4,3.89,4H211.76c3.81,0,4-.19,4-4.13V70.31c0-3.92-.18-4.1-4-4.1h-159c-4,0-4.15.12-4.15,4.26V235.21Z"/><path class="cls-2" d="M405.86,152.49c3.11.37,4.42-2.09,6.08-3.94.79-.87,1.42-1.88,2.13-2.83l.63-1.15c1.47-3.65,2.31-7.37,1.24-11.28-2-7.18-8-9.44-14.13-11.23-4.31-1.25-6.36.09-7.93,4.27-6.77-4.12-11.52-3.9-13.9.66-2.56,4.89-1.09,9.34,3.82,11.56,3.32.16,6.15-1.53,9.18-2.45,5.21-1.59,7.57-.16,9.07,5.08C403.14,145,403.4,149.13,405.86,152.49Z"/><path class="cls-3" d="M414.7,144.57l-.63,1.15c4.05,0,8.1.05,12.16,0,3,0,4-1,4-3.9q0-36.21,0-72.41c0-3-1-3.82-4.38-3.82h-181c-4.11,0-4.92.77-4.92,4.74V141.1c0,3.72.9,4.65,4.48,4.65H382.06c.36,0,.73,0,1.1,0,0-.38,0-.75-.05-1.12l-137.9,0c-4,0-4.13-.14-4.13-4.28V71.25c0-4.48,0-4.49,4.44-4.49H413.27c4.14,0,8.29.13,12.43-.05,2.71-.11,3.6,1,3.47,3.57-.15,3,0,6.08,0,9.12v61.34c0,3.71-.17,3.87-3.94,3.87Z"/><path class="cls-4" d="M359.33,233.63c-2.58,0-5.15.11-7.73.09-2.36,0-3.41.83-2.85,3.36a44.23,44.23,0,0,1,0,19.43c-.57,2.57.44,3.33,2.83,3.3,5.25-.06,10.49-.07,15.74,0,1.92,0,2.85-.68,3.09-2.63a82.85,82.85,0,0,0,.08-20.09c0-2.55-1.39-3.47-3.83-3.39S361.77,233.67,359.33,233.63Z"/><path class="cls-5" d="M422.35,225.29c0,3.08.18,6.09-.94,9.18-1.32,3.68,1.59,7.17,5.55,7.45.73.05,1.46.05,2.2.07,3.48-2.66,4.37-5.64,2.79-10.1-1.07-3-.31-6.74-.18-10.13.41-10.4.91-20.8,1.38-31.19-3.52-1-7.1-.34-10.65-.4-1.3,0-1.22,1.14-1.19,2.07q.31,12.81.66,25.62C422,220.34,422.22,222.81,422.35,225.29Z"/><path class="cls-5" d="M359.33,233.63c2.44,0,4.88.16,7.32.08s3.81.84,3.83,3.39c-.35-5,2.53-8.95,4.46-13.17,3.53-7.71,7.26-15.34,10.9-23,.06-1.14-.92-1.21-1.61-1.48-2.94-1.15-5.9-2.23-8.84-3.34-4.2,10.91-8.45,21.81-12.53,32.77C362.11,230.9,359.73,231.49,359.33,233.63Z"/><path class="cls-5" d="M383.11,144.59c0,.37,0,.74.05,1.12,2,5,4.85,9,10.45,10.23,4.63,1,8.89.27,12.25-3.45-2.46-3.36-2.72-7.49-3.81-11.31-1.5-5.24-3.86-6.67-9.07-5.08-3,.92-5.86,2.61-9.18,2.45A20.89,20.89,0,0,0,383.11,144.59Z"/><path class="cls-2" d="M435,331c5.33-2.24,10.65-4.5,16-6.71,1.13-.47,1.66-1,.89-2.22-1.15-1.87-1.14-4.37-3.07-5.84l-7.57,3.16-3,1.33c-4.92,2.18-6.59,5.45-5.55,10.79Z"/><path class="cls-2" d="M406.3,323.67c-1.45,0-2.9,0-4.36.07-3.87.11-6.31,1.89-7.74,5.64a.89.89,0,0,1-.35,1l-.3,1.09,19,0a3,3,0,0,0,2.33-.58c0-2.21,0-4.43-.05-6.65a.37.37,0,0,1-.21-.4l-1-.26Z"/><path class="cls-3" d="M414.89,331a3,3,0,0,1-2.33.58l-19,0H380v.79h90.58a5.1,5.1,0,0,0-3.53-.8c-9.85,0-19.7,0-29.54,0-.82,0-1.85.55-2.48-.51l-2.32.51c-4.81,0-9.62.06-14.43,0C417.14,331.45,415.89,332,414.89,331Z"/><path class="cls-6" d="M406.3,323.67h7.29c0-1.82-.1-3.64-.16-5.46-2.59-.07-5,.89-7.57,1.16A14.21,14.21,0,0,1,406.3,323.67Z"/><path class="cls-6" d="M441.24,319.34l7.57-3.16c-1.85-.15-1.52-1.65-1.74-2.8-1.73,2.75-5.07,2.67-7.48,4.24C440.75,317.61,441.12,318.35,441.24,319.34Z"/><path class="cls-3" d="M393.85,330.42a.89.89,0,0,0,.35-1Z"/><path class="cls-3" d="M414.84,324.32l.15-.19-.36-.21A.37.37,0,0,0,414.84,324.32Z"/><path class="cls-4" d="M107.31,196a53.9,53.9,0,0,0,25.39,6.55c25.54,0,47.74-20.88,49.21-46.33,1.52-26.2-15.6-48-41.52-52.78a30.78,30.78,0,0,0-8.52-.65q-.18,7.38-.35,14.76c1.47.16,2.93.34,4.4.45,19.16,1.47,34.08,20.91,30.9,39.84a35.42,35.42,0,0,1-38.77,29.5c-18.62-2-33.18-20.4-30.48-38.94.65-4.43,2.36-8.46,3.66-12.64L89.5,127.28a46,46,0,0,0-6.82,30.86c1.91,16.3,10.18,28.68,24,37.45Z"/><path class="cls-1" d="M131.52,117.59q.18-7.38.35-14.76a51.73,51.73,0,0,0-21.63,4.94c-.82.37-1.68.66-2.53,1-.19.46-.58.47-1,.43-4.19,3.53-8.64,6.76-12.26,10.92a26.36,26.36,0,0,0-5,7.18l11.73,8.52c.87-.34,1.09-1.22,1.54-1.89a35.2,35.2,0,0,1,19.88-14.78C125.58,118.26,128.64,118.53,131.52,117.59Z"/><path class="cls-4" d="M89.52,213.11c-4,0-7.9.17-11.85.06-2.88-.08-3,1.65-3,3.77s.51,3.48,3.06,3.45c7.81-.09,15.62-.1,23.42,0,2.86,0,3-1.61,3-3.74s-.3-3.6-3-3.5c-3.49.13-7,0-10.47-.06Z"/><path class="cls-1" d="M96,87.79c4,0,7.9-.12,11.84,0,2,0,2.88-.7,2.73-2.73s.53-4.43-2.61-4.45q-12.12-.12-24.24,0c-2.49,0-2.47,1.91-2.49,3.75s.34,3.36,2.59,3.39c3.77,0,7.53,0,11.3,0Z"/><path class="cls-3" d="M96,87.79l-.88-.05c2.9,6.33,6.72,12.15,10,18.29.55,1,1.1,2.1,1.66,3.15.4,0,.79,0,1-.43Z"/><path class="cls-3" d="M89.52,213.11h1.24c.18-.29.35-.59.53-.89l-.36-.57Z"/><path class="cls-3" d="M107.31,196l-.65-.45-.65.94.38.55Z"/><path class="cls-3" d="M102.15,200.41l-.55.55.38.57.74-.77Z"/><path class="cls-3" d="M101.43,202.08l.55-.55-.38-.57-.55.56Z"/><path class="cls-3" d="M101.05,201.52l-.55.56.38.56.55-.56C101.3,201.9,101.18,201.71,101.05,201.52Z"/><path class="cls-3" d="M100.5,202.08l-.55.55.37.56.56-.55Z"/><path class="cls-3" d="M100,202.63l-.55.56.37.56.55-.56Z"/><path class="cls-3" d="M99.4,203.19l-.55.55.37.56.55-.55Z"/><path class="cls-3" d="M98.61,204.89l.61-.59-.37-.56-.55.56Z"/><path class="cls-3" d="M98.3,204.3c-.33.15-.66.34-.34.73.06.08.42-.09.65-.14Z"/><path class="cls-3" d="M94.6,208.89c.27-.16.64-.41.36-.7-.41-.44-.67.08-.94.34Z"/><path class="cls-3" d="M94,209.44l.56-.55-.58-.36-.55.55Z"/><path class="cls-3" d="M93.47,209.08l-.54.54.56.38.55-.56Z"/><path class="cls-3" d="M92.93,209.62c-.18.2-.37.4-.56.59l.57.34.55-.55Z"/><path class="cls-3" d="M103.26,199.3l-.56.56.37.56.74-.73Z"/><path class="cls-3" d="M92,210.53l-.77.78.57.35.55-.56Z"/><path class="cls-3" d="M91.27,211.31a.8.8,0,0,0-.34.34l.36.56.55-.55Z"/><path class="cls-3" d="M103.81,199.69l.55-.56-.55-.38-.55.55Z"/><path class="cls-3" d="M104.36,199.13l.55-.55-.55-.39-.55.56Z"/><path class="cls-3" d="M104.91,198.58l.55-.55-.56-.4-.54.56Z"/><path class="cls-3" d="M102.72,200.76a.82.82,0,0,0,.35-.34l-.37-.56-.55.55Z"/><path class="cls-3" d="M105.46,197.08l-.56.55.56.4.56-.58C105.83,197.33,105.64,197.21,105.46,197.08Z"/><path class="cls-3" d="M106,196.53l-.55.55c.18.13.37.25.56.37a.83.83,0,0,0,.37-.37Z"/><path class="cls-3" d="M92.39,211.1l.55-.55-.57-.34a.85.85,0,0,0-.33.32C92.16,210.72,92.28,210.91,92.39,211.1Z"/><path class="cls-7" d="M275.4,84.07c-2.57,0-5.15,0-7.72,0a2.55,2.55,0,0,0-3,2.5,70.08,70.08,0,0,0,0,21.15,2.33,2.33,0,0,0,2.58,2.27c5.52,0,11,0,16.56,0,1.87,0,2.65-1.07,2.23-2.92a45.27,45.27,0,0,1,0-20c.44-2-.39-3-2.43-3Z"/><path class="cls-4" d="M394.6,83.93c-2.58,0-5.15,0-7.73,0-2.19,0-3.29.77-2.76,3.18a45.38,45.38,0,0,1-.05,20c-.46,2,.42,3,2.37,3.06,5.51,0,11,0,16.54,0,1.78,0,2.59-1,2.81-2.71a83,83,0,0,0,0-20.89,2.56,2.56,0,0,0-2.89-2.6C400.11,84,397.35,83.93,394.6,83.93Z"/><path class="cls-8" d="M334.23,83.93c-2.58,0-5.16,0-7.73,0-1.88,0-2.88.68-3.12,2.65a83.77,83.77,0,0,0,0,20.63c.25,2,1.09,3,3.14,3,5.24,0,10.49,0,15.73,0,2.23,0,3.26-1,2.77-3.26a46.56,46.56,0,0,1,0-19.7c.49-2.25-.45-3.3-2.76-3.26C339.57,84,336.9,83.93,334.23,83.93Z"/><path class="cls-1" d="M304.61,101.54c-2.76,0-5.52,0-8.28,0-1.87,0-2.85.65-2.33,2.91a43.41,43.41,0,0,1,0,19.83c-.54,2.32.67,3.15,2.54,3.19,5.42.11,10.85.06,16.27,0a2.64,2.64,0,0,0,2.83-2.48,88.83,88.83,0,0,0,0-21.37c-.17-1.54-1.24-2.13-2.73-2.12C310.13,101.55,307.37,101.54,304.61,101.54Z"/><path class="cls-1" d="M364.34,101.54c-2.58,0-5.16.13-7.72,0-2.77-.18-3,1.4-2.77,3.47.33,2.53.84,5,1,7.59a38.74,38.74,0,0,1-1,10.61c-.7,3.51,0,4.34,3.57,4.35q6.9,0,13.79,0c3.23,0,3.74-.63,4.13-3.74a83.25,83.25,0,0,0,0-19.45c-.22-2.07-1-2.93-3.09-2.83C369.67,101.63,367,101.54,364.34,101.54Z"/></svg>