<svg id="Capa_1" data-name="Capa 1" xmlns="http://www.w3.org/2000/svg" viewBox="0 0 518.05 397.36"><defs><style>.cls-1{fill:#e4e3e3;}.cls-2{fill:#46ad41;}.cls-3{fill:#313143;}.cls-4{fill:#a7c256;}.cls-5{fill:#61b770;}.cls-6{fill:#f2f2f2;}.cls-7{fill:#eddaa6;}.cls-8{fill:#f5b6b9;}.cls-9{fill:#fff;}</style></defs><path class="cls-1" d="M354.24,208.14c-1.2-.71-.81-1.69-.48-2.68q5.36-16.22,10.68-32.43c3.71-11.35,7.36-22.71,11.07-34.05,1.21-3.7,3.32-6.95,7.05-8.27a14.54,14.54,0,0,0,9.76-10.65,2.71,2.71,0,0,1,2.36-2c3.42-.72,6.84-1.41,10.23-2.21a3.21,3.21,0,0,1,3.08.65c1.77,1.47,3.67,2.78,5.56,4.11s4,.7,6,1.25c1.76.48,3.59-.19,5.37.38a8.05,8.05,0,0,1,5.86,8c.06,7.82.36,15.67-.11,23.46-.38,6.3-.32,12.58-.27,18.87,0,2.57-1.2,4.39-2.38,6.33-2.15,3.53-4.35,7-6.67,10.46a9.63,9.63,0,0,0-1.52,4.46c-.3,2.84-.39,5.7-.57,8.55-2.36-.43-4.74,0-7.1-.09.72-1.25,1.17-2.32-1-2.48a20.74,20.74,0,0,1-2.73-.72c-.76-.16-2-.5-2.21.15-.85,2.55-3.28,2.57-5.09,3.58q-15.86.56-31.7,1.13a9.24,9.24,0,0,0-1.61.34c-1.89.91-2.46,2.81-3.19,4.49-.81,1.88-1.87,2.58-3.79,1.67C358.71,209.46,356.69,208.18,354.24,208.14Z"/><path class="cls-2" d="M274.2,293.83v1.42q0,9.81,0,19.63c0,.47,0,.94,0,1.42v9.13l-.09,1.74c-6.94,0-13.88,0-20.82.18-2.3.07-2.7-.7-2.7-2.8q.09-75.92,0-151.82,0-26.34,0-52.68c7.33,0,14.66,0,22-.11,1.18,0,1.56.45,1.46,1.55-.05.64,0,1.28,0,1.92q0,72.85,0,145.72c0,1,.05,2.07.09,3.11Q274.2,283,274.2,293.83Z"/><path class="cls-3" d="M367.8,204.29a9.24,9.24,0,0,1,1.61-.34q15.84-.58,31.7-1.13l-1.47,2.72-2.45,0a46.43,46.43,0,0,0-10,0l-4.27.39a.39.39,0,0,0-.63,0c-3.72.39-3.72.39-3.73,3.91,0,1.75,0,3.5,0,5.26,0,2.57.73,3.15,3.17,2.77a75.56,75.56,0,0,1,22.57,0,.8.8,0,0,0,1.07,0,1.66,1.66,0,0,0,1-1c.62-.77.21-1.67.29-2.51.1-1.1-.33-2.61.25-3.24,2.36-2.58,3.11-6.05,5.19-8.74,2.36.1,4.74-.34,7.1.09q1.36,28,2.72,55.91,1.34,27.24,2.62,54.48c0,.85.53,2-1,2.16a35.08,35.08,0,0,0-6.71.49c-1.69.25-2.43-.44-2.81-2.16q-10-45.35-20.14-90.65c-.1-.46.14-1.21-.77-1.17-.87,9-1.72,17.95-2.6,26.91-1.2,12.38-2.44,24.75-3.62,37.13-.91,9.52-1.77,19-2.65,28.58l-.11.08.1.09a1.65,1.65,0,0,1-.9,1,47.51,47.51,0,0,0-7.45-.05l-2.27-.09,0-.14h-.16c-.2-10.53-.34-21.05-.63-31.57-.4-15.14-.59-30.3-2.42-45.36-.76-6.23-2.4-12.32-2.55-18.67C367.71,214.33,367.63,209.31,367.8,204.29Z"/><path class="cls-4" d="M195.11,180.86c7.34,0,14.68,0,22-.11,1.2,0,1.56.49,1.44,1.57a5.61,5.61,0,0,0,0,.71q0,72.08,0,144.14c-7.34,0-14.68.05-22,.14-1.7,0-1.45-1-1.45-2.06Z"/><path class="cls-3" d="M195.11,180.86l0,144.39c0,1-.25,2.08,1.45,2.06,7.34-.09,14.68-.1,22-.14,8.78,0,17.55.07,26.32.14,1.13,0,1.64-.31,1.5-1.47a9.61,9.61,0,0,1,0-1.2q0-101.24-.05-202.47c0-1.78.39-2.51,2.21-2.21a17,17,0,0,0,2.15.09q0,26.34,0,52.68,0,75.92,0,151.82c0,2.1.4,2.87,2.7,2.8,6.94-.2,13.88-.14,20.82-.18.72,0,1.43.12,2.14.12q43.51,0,87,0c1.7,0,2.46-.4,2.84-2.15.62-2.81,2.67-4.42,5.39-5.18l.2.05.14-.15,4.92-.2,6.54,0,1.1.12.05.19.2,0c0,1.75.12,3.51,0,5.25-.09,1.49.27,2.08,1.93,2.05q8.72-.15,17.44,0c1.43,0,1.84-.46,2.17-1.75.93-3.63,3.47-5.59,7.23-5.79,1.19-.06,2.38-.06,3.57-.1h6.5c1.11,0,1.43.58,1.44,1.67,0,1.9-.87,4.45.33,5.53,1.39,1.25,4,.39,6,.39,12.53,0,25.07,0,37.6,0A4.26,4.26,0,0,1,472,328H46.09c.78-1.15,1.82-.7,2.64-.7q33.88,0,67.78,0c1,0,1.91-.06,2.87-.1,3.73,0,7.46.1,11.19.12,4.92,0,4.92,0,4.6-4.89,0-.2,0-.39,0-.59.25-11.42.21-22.84,0-34.26,0-1.59,0-3.19,0-4.78V278l.09-33.23c0-3.19,0-3.19,3.09-3.15.4,0,.79,0,1.19.07q0,41.65,0,83.31a5.77,5.77,0,0,1,0,.72c-.17,1.31.51,1.6,1.69,1.59,7.26-.07,14.52-.09,21.78-.12h18.2c2.71,0,5.42,0,8.12.13,1.13,0,1.52-.32,1.52-1.48-.07-10-.09-20.08-.12-30.12,0-.72.09-1.43.09-2.15V184c0-3.19,0-3.19,3.1-3.15C194.31,180.81,194.71,180.84,195.11,180.86Z"/><path class="cls-5" d="M163,327.19c-7.26,0-14.52.05-21.78.12-1.18,0-1.86-.28-1.69-1.59a5.77,5.77,0,0,0,0-.72q0-41.65,0-83.31c7.34,0,14.67-.05,22-.12,1.17,0,1.58.43,1.47,1.54-.05.55,0,1.11,0,1.67q0,39.37,0,78.74c0,1,.05,1.91.08,2.87C163.07,326.66,163,326.92,163,327.19Z"/><path class="cls-6" d="M135.16,287.57c.18,11.42.22,22.84,0,34.26-4.43-4.44-9-8.79-12-14.44a17,17,0,0,0-.93-1.67c-1-1.44-.94-2.46.79-3.39a10.09,10.09,0,0,0,4.23-3.42c-.89-.65-1.31.13-1.77.56a17.55,17.55,0,0,1-3.75,2.51c-.9.49-1.49.33-1.9-.61-1.19-2.69-2.37-5.38-3.57-8.07-.5-1.12,0-1.73,1-2.28a9.18,9.18,0,0,0,3.93-3.38c-2.07.17-3,1.91-4.48,2.63-1.32.63-1.65.32-2-.77-1.21-3.53-2.44-7.06-3.66-10.59-.28-.8-.43-1.48.66-1.92a23.61,23.61,0,0,0,8.74-6.49c1-1.06,1.89-1.36,3.1-.52l.21.11c5.47,2.65,5.52,2.72,3.07,8.42a21.54,21.54,0,0,1-3.35,5.75,1.61,1.61,0,0,0-.44,1.86,23.59,23.59,0,0,0,5-7.79,7.63,7.63,0,0,1,.61-1.8c.73-1-.19-3.41,1.42-3s4,1,4.24,3.55a.92.92,0,0,0,.93.9v4.79c-.87.08-.86.71-1,1.37a22.36,22.36,0,0,1-5.38,11.94c-.4.45-1,.83-.57,1.84,2.86-2.21,4.25-5.24,5.55-8.36C134.12,288.85,134,287.73,135.16,287.57Z"/><path class="cls-3" d="M388.13,108.48c-.57.4-.82-.17-1.14-.42a16.14,16.14,0,0,1-2.12-23.31c1.11-1.25,1.14-1.94.3-3.32a8.59,8.59,0,0,1,2-11.32l0-.07c.58,1-.54,1.3-.89,1.86a8.53,8.53,0,0,0,.54,10.26c-.07-.92-.13-1.67-.16-2.43A9.06,9.06,0,0,1,395.51,70,9,9,0,0,1,405,79.38,2.72,2.72,0,0,0,406.39,82a16.19,16.19,0,0,1,3.14,23.9c-.59.69-1.06,1.66-2.22,1.6-.07-.87.61-1.43.9-2.15a11.52,11.52,0,0,0-.7-10.81c-.16.65-.21.88-.27,1.11-.89,3.28-.92,3.38-4,2.17-4-1.56-7.95-2.14-12-.41-3.23,1.36-3.25,1.31-4.39-2a5.89,5.89,0,0,0-1.09,2.66C384.84,102,386.3,105.27,388.13,108.48Z"/><path class="cls-6" d="M190.72,295.72c0,10,.05,20.08.12,30.12,0,1.16-.39,1.52-1.52,1.48-2.7-.1-5.41-.09-8.12-.13,1.26-1.25-.4-1.33-.79-1.62-3.7-2.73-5.68-6.45-6.8-11a27.42,27.42,0,0,0,7,.16c-2-.62-4-.05-6-.72-1-.35-1.28-.85-1.08-1.72.25-1.1,1-.41,1.53-.29a34.24,34.24,0,0,0,5.84,1l-6.9-4.24c1-1.09,2.25-.24,3.21-.79-.06-.09-.12-.25-.19-.25-3.64-.22-3.68-.22-3.54-3.89a19.89,19.89,0,0,1,.51-3.76c.4-1.75,2.13-1.16,3.17-1.37,1.76-.35,2.15-.64,1.16-2.33a19,19,0,0,1-1.37-4.3c-.46-1.53.16-2.19,1.61-1.57,3.69,1.55,7.57,2.7,11,5A3.46,3.46,0,0,0,190.72,295.72ZM179.27,301l.2.11-.2-.11-.19-1.05c-.06,0-.16.07-.18.12A.73.73,0,0,0,179.27,301Zm2.79,5.49a.61.61,0,0,0-.6-.6c-.33,0-.62.13-.64.52a.59.59,0,0,0,.68.71C181.88,307.09,182,306.81,182.06,306.48Zm2.78,6.83c-.13-.06-.3-.19-.4-.15s-.12.25-.18.38c.13.06.3.19.39.15S184.78,313.45,184.84,313.31Zm4.37-15.66-.1-.19c-.05.05-.13.11-.13.17s.06.13.1.19Zm-6.4,16.55-.32-.1,0,.18Z"/><path class="cls-6" d="M135.17,322.42c.32,4.89.32,4.91-4.6,4.89-3.73,0-7.46-.08-11.19-.12-1.84-1.9-4.54-2.33-6.57-4a31.76,31.76,0,0,1-10.51-16.61c-.37-1.39,0-1.59,1.42-1.34,5,.92,10,1.06,14.82-.68,1.39-.5,2,.24,2.6,1.35A58,58,0,0,0,133,321.05,7.17,7.17,0,0,0,135.17,322.42Z"/><path class="cls-6" d="M274.2,325.43V316.3c3.72-3.13,6.19-7.22,8.46-11.4.86-1.58,1.58-2.26,3.5-1.63a27,27,0,0,0,14.12.5c1.71-.36,1.89.36,1.53,1.54-2.65,8.63-7.21,15.79-15.9,19.41a15.25,15.25,0,0,1-9.81.82A9.16,9.16,0,0,0,274.2,325.43Z"/><path class="cls-7" d="M388.13,108.48c-1.83-3.21-3.29-6.51-2.41-10.35a5.89,5.89,0,0,1,1.09-2.66c1.14,3.26,1.16,3.31,4.39,2,4.09-1.73,8.05-1.15,12,.41,3.08,1.21,3.11,1.11,4-2.17.06-.23.11-.46.27-1.11a11.52,11.52,0,0,1,.7,10.81c-.29.72-1,1.28-.9,2.15A12.39,12.39,0,0,1,391.79,111c-1.07-.52-2.1-1.09-3.15-1.64,0-.42.16-.93-.55-.92Z"/><path class="cls-6" d="M275.78,271.57c.06.27-.11-.06,0-.17,1.45-1.69,3.67-2.07,5.47-3.17,1-.61,1.65,0,2.26.7a27.35,27.35,0,0,0,8.94,6.62c1.06.48.89,1.15.62,1.94-1.13,3.39-2.26,6.78-3.42,10.17-.4,1.18-.91,2-2.36,1C281.22,284.66,277.13,279.36,275.78,271.57Z"/><path class="cls-6" d="M274.2,293.83q0-10.8,0-21.59c1.76,1.13,1.32,3.23,2,4.83a25,25,0,0,0,9.87,11.86c2,1.26,2.37,2.43,1.25,4.45s-2,4.14-2.91,6.25c-.55,1.27-1.23,1.35-2.41.78C278.8,298.88,276.88,295.92,274.2,293.83Z"/><path class="cls-6" d="M300,292.37a35.83,35.83,0,0,1-8.36-1.56c-1.42-.46-1.79-1.23-1.23-2.69,1.27-3.35,2.42-6.74,3.56-10.13.36-1.08.77-1.71,2-1.09a3.54,3.54,0,0,0,1.83.44c3-.36,3.74,1.38,4,3.87.27,2.91.65,5.82,1.07,8.72C303.22,292.3,301.93,292.64,300,292.37Z"/><path class="cls-6" d="M104.67,293.81c-3.51,0-3.65-.31-3.22-3.06.51-3.2.82-6.44,1.16-9.66.15-1.39.64-2.3,2.22-2.14a4.33,4.33,0,0,0,.72,0c1.38-.09,2.93-1.5,4-.49.92.86,1,2.6,1.48,3.94.89,2.46,1.77,4.94,2.74,7.37.47,1.18.44,1.87-1,2.34A39.18,39.18,0,0,1,104.67,293.81Z"/><path class="cls-6" d="M301.61,293.8l-12.37,7.69.17.44c3.78-1,7.55-1.95,11.34-2.87.6-.15,1.82-.87,1.78,0,0,1.06.63,2.85-1,3.32a24.69,24.69,0,0,1-15.66-.23c-1-.38-1.18-.73-.73-1.7,1.22-2.58,2.36-5.21,3.48-7.84a1.56,1.56,0,0,1,2.28-.95A45.44,45.44,0,0,0,301.61,293.8Z"/><path class="cls-6" d="M114.87,302.92l-13-8.09a34.61,34.61,0,0,0,11.69-1.89c1-.34,1.47.29,1.82,1.09,1.15,2.61,2.26,5.24,3.46,7.83.44.95.34,1.33-.71,1.7a25.07,25.07,0,0,1-15,.42c-2-.51-1.78-2-1.43-3.19.45-1.53,1.63-.33,2.37-.15,3.51.84,7,1.82,10.49,2.75Z"/><path class="cls-6" d="M71,242.3a5.47,5.47,0,0,1-5.61,5.52,5.76,5.76,0,1,1,.22-11.5C68.81,236.38,71.08,238.89,71,242.3Z"/><path class="cls-6" d="M71,181.12A5.48,5.48,0,0,1,65.46,187c-2.95,0-5.88-2.69-5.95-5.44a6.27,6.27,0,0,1,5.66-6A5.62,5.62,0,0,1,71,181.12Z"/><path class="cls-6" d="M71,120.55a5.47,5.47,0,0,1-5.79,5.6c-2.82,0-5.79-3-5.69-5.65.11-3.08,2.93-5.9,5.84-5.84A5.94,5.94,0,0,1,71,120.55Z"/><path class="cls-7" d="M354.24,208.14c2.45,0,4.47,1.32,6.58,2.31-.83,1.48-1.52,2.69-.64,4.7,1.09,2.48-.63,4.47-2.77,5.87a2.67,2.67,0,0,0-.4,0l-2,.08a1.76,1.76,0,0,0-.4,0c-3.91-1.55-4.81-4-2.83-7.67a5.91,5.91,0,0,0,.38-1.34l-.07,0C353.45,211.09,353.57,209.47,354.24,208.14Z"/><path class="cls-6" d="M274.21,314.88q0-9.83,0-19.63c2.47,2.22,4.73,4.71,7.72,6.3a1.16,1.16,0,0,1,.56,1.79C280,307.37,277.86,311.68,274.21,314.88Z"/><path class="cls-6" d="M106.77,263.74a83.82,83.82,0,0,1,12.77,4.55c1.13.47.54,1.08,0,1.63a25.21,25.21,0,0,1-7.72,5.9c-1.2.56-1.71.38-2-.86C108.86,271.37,107.87,267.79,106.77,263.74Z"/><path class="cls-6" d="M297.1,262.42a106.25,106.25,0,0,1-2.76,10.93c-.37,1.34-1,1.51-2,1a25.09,25.09,0,0,1-8.08-6.16c-.63-.7-.34-1.14.39-1.42A97,97,0,0,1,297.1,262.42Z"/><path class="cls-6" d="M298.24,265c.8,3.46,1.55,6.92,2.41,10.36.3,1.21-.43,1.26-1.15,1.14-1.32-.22-2.62-.6-3.93-.9-.79-.19-.68-.66-.5-1.27.91-3.11,1.77-6.24,2.65-9.35Z"/><path class="cls-6" d="M106.18,265.76c1.07,3.84,1.95,7,2.87,10.22.24.8-.17,1-.77,1.14-1.52.38-3.27,1.55-4.53.62-1-.72.06-2.5.34-3.77C104.63,271.43,105.36,268.92,106.18,265.76Z"/><path class="cls-8" d="M383.32,319.68l-6.54,0c-.41-1.48.56-3.24-.89-4.52a47.51,47.51,0,0,1,7.45.05C383.34,316.72,383.33,318.2,383.32,319.68Z"/><path class="cls-4" d="M356.51,228.17c-.91.85-2.06.46-3,.29-6.91-1.27-13.8-.74-20.7-.07-1.07.11-2.39.88-3.13-.7l0,0a5.1,5.1,0,0,0,2.05.27,100.32,100.32,0,0,1,16.89-.71c.84,0,2,.55,2.46-.21s.09-1.74.09-2.88c1,1,1.7.2,2.5-.31a1.12,1.12,0,0,0,.05.46c.44.77,2.23.42,1.7,2s-1.9.63-2.86.91l-.94.33,4.92.67Z"/><path class="cls-8" d="M423.52,319.68H417l-.18-4.27a35.08,35.08,0,0,1,6.71-.49Z"/><path class="cls-4" d="M329.72,217.66c.78-1,1.09-1.81-.7-2.11a1.49,1.49,0,0,1-1.24-2c1.11-2.86,1.76-6,3.85-8.37l0,0c-.94,2.34-1.82,4.71-2.86,7-.81,1.81-.48,2.7,1.55,3.24a35.78,35.78,0,0,1,8.3,3c-2.95-.6-5.77-2.46-8.9-.81Z"/><path class="cls-4" d="M352.1,212.05l.07,0a5.55,5.55,0,0,1-2.66-1,88.08,88.08,0,0,0-13.06-5.23c-1.56-.48-3.12-1.35-4.86-.69l0,0c.14-1,.95-1,1.62-.84C339.77,206.34,346.28,208.36,352.1,212.05Z"/><path class="cls-6" d="M87.67,243.5H86.24c-.85,0-1.35-.3-1.33-1.24s.27-1.46,1.13-1.55,1.91-.05,2.86-.08,1.72.05,1.76,1.34-.69,1.61-1.79,1.54C88.47,243.48,88.07,243.5,87.67,243.5Z"/><path class="cls-6" d="M76.49,243.54c-1-.26-2.62.62-2.6-1.45,0-2.23,1.72-1.35,2.78-1.41s2.57-.54,2.47,1.49S77.44,243.22,76.49,243.54Z"/><path class="cls-6" d="M121.72,121.81c-.63,0-1.27,0-1.9,0s-.89-.55-.89-1.16.19-1.13.89-1.16c1,0,2.06,0,3.09,0s1.8,0,1.73,1.32-1,1-1.73,1.08h-1.19Z"/><path class="cls-6" d="M178.38,121.82c-.63,0-1.26,0-1.9,0-.83,0-1-.55-1-1.28s.32-1,1-1.06l3.09,0c.84,0,1.61,0,1.62,1.19s-.74,1.23-1.6,1.21c-.39,0-.79,0-1.19,0Z"/><path class="cls-6" d="M212.23,121.82h-1.67c-.8,0-1.1-.47-1.09-1.22a1,1,0,0,1,1.17-1.15c1,0,1.9,0,2.85,0,.8,0,1.65-.08,1.69,1.11,0,1.34-.87,1.28-1.77,1.28h-1.18Z"/><path class="cls-6" d="M280.42,119.47c.63,0,1.27,0,1.9,0s.89.55.88,1.17-.19,1.12-.9,1.15c-1,0-2.05,0-3.08,0-.78,0-1.66.13-1.72-1.08s.81-1.32,1.73-1.31c.4,0,.79,0,1.19,0Z"/><path class="cls-6" d="M121.83,182.65h-1.9c-.68,0-1-.41-1-1.07s.19-1.26,1-1.28c1,0,2.05,0,3.08,0,.86,0,1.61.07,1.6,1.22s-.78,1.2-1.62,1.18h-1.19Z"/><path class="cls-6" d="M302.93,182.65c-.64,0-1.27,0-1.9,0-.84,0-1-.57-1-1.3s.33-1,1-1c1,0,2.05,0,3.08,0,.85,0,1.62,0,1.62,1.19s-.77,1.22-1.61,1.2h-1.19Z"/><path class="cls-6" d="M336.76,182.67h-1.19c-.88,0-1.58-.12-1.55-1.26s.86-1.13,1.68-1.13h2.37c.81,0,1.64-.05,1.67,1.14s-.68,1.27-1.55,1.25Z"/><path class="cls-6" d="M336.93,121.82c-.64,0-1.27,0-1.9,0s-1-.4-1-1.06.19-1.27,1-1.28l3.09,0c.86,0,1.61.07,1.6,1.21s-.79,1.2-1.63,1.19c-.39,0-.79,0-1.18,0Z"/><path class="cls-6" d="M302.93,121.82c-.64,0-1.27,0-1.9,0-.84,0-1-.57-1-1.29a.94.94,0,0,1,1-1l3.09,0c.84,0,1.61,0,1.61,1.2s-.77,1.21-1.62,1.2c-.39,0-.79,0-1.18,0Z"/><path class="cls-6" d="M325.08,180.28h1.73c.79,0,1.41.15,1.43,1.14s-.46,1.27-1.32,1.25a13.62,13.62,0,0,1-1.43,0c-1.09-.12-2.8.54-2.86-1.22C322.55,179.34,324.51,180.84,325.08,180.28Z"/><path class="cls-6" d="M314.41,180.29h1.68c.62,0,1.08.22,1.1,1s-.23,1.22-.83,1.27a34,34,0,0,1-4,.1c-.72,0-.81-.63-.8-1.23s.3-1.06,1-1.08,1.27,0,1.9,0Z"/><path class="cls-6" d="M201,121.83c-.47,0-.94,0-1.41,0-.77,0-1.49-.24-1.51-1.13,0-1,.76-1.24,1.62-1.25H202c.81,0,1.63,0,1.66,1.13,0,1.33-.88,1.27-1.77,1.27H201Z"/><path class="cls-4" d="M329.71,227.69a16.66,16.66,0,0,1,0-10l0,0v10.08Z"/><path class="cls-4" d="M357,221a2.67,2.67,0,0,1,.4,0c-.19,2.22.49,4.49-.42,6.66l0,0C357,225.49,357,223.25,357,221Z"/><path class="cls-3" d="M387.19,70.11a1.27,1.27,0,0,1,1.29-.77c-.44.24-.33,1.28-1.33.71Z"/><path class="cls-6" d="M163,327.19c0-.27.07-.53.11-.8.27.27.54.54.82.8Z"/><path class="cls-3" d="M388.09,108.43c.71,0,.56.5.55.92C388.14,109.23,387.74,109.05,388.09,108.43Z"/><path class="cls-8" d="M373.42,315h.16l0,.14C373.38,315.29,373.4,315.13,373.42,315Z"/><path class="cls-4" d="M357,227.68l-.48.49,0,0q-.07-.55.48-.48Z"/><path class="cls-8" d="M371.86,319.9l-.14.15-.2-.05C371.58,319.79,371.69,319.73,371.86,319.9Z"/><path class="cls-7" d="M399.64,205.54l1.47-2.72c1.81-1,4.24-1,5.09-3.58.21-.65,1.45-.31,2.21-.15a20.74,20.74,0,0,0,2.73.72c2.17.16,1.72,1.23,1,2.48-2.08,2.69-2.83,6.16-5.19,8.74-.58.63-.15,2.14-.25,3.24-.08.84.33,1.74-.29,2.51,0-1.26-.07-2.52,0-3.79,0-1-.27-1.52-1.45-1.61C400.73,211.06,399.64,209.79,399.64,205.54Z"/><path class="cls-6" d="M399.64,205.54c0,4.25,1.09,5.52,5.28,5.84,1.18.09,1.48.57,1.45,1.61,0,1.27,0,2.53,0,3.79a1.66,1.66,0,0,1-1,1,.87.87,0,0,0-1.07,0,75.56,75.56,0,0,0-22.57,0c-2.44.38-3.13-.2-3.17-2.77,0-1.76,0-3.51,0-5.26,0-3.52,0-3.52,3.73-3.91.22.28.43.3.63,0l4.26-.39a83.58,83.58,0,0,0,10,0Zm-7,2.88a3.24,3.24,0,1,0,3.17,3.44A3.18,3.18,0,0,0,392.65,208.42Zm10.08,8.22c.8-.09,2,.28,2-1.19s-1.23-1.19-2.11-1.16-2.1-.46-2.09,1.13S401.74,216.59,402.73,216.64Zm-20.33-9.09c-.76.15-1.91-.38-1.95,1.06,0,1.69,1.27,1.26,2.22,1.3s2.1.16,2-1.3S383.25,207.71,382.4,207.55Z"/><path class="cls-8" d="M397.19,205.51a83.58,83.58,0,0,1-10,0A46.52,46.52,0,0,1,397.19,205.51Z"/><path class="cls-8" d="M404.31,217.85a.87.87,0,0,1,1.07,0A.8.8,0,0,1,404.31,217.85Z"/><path class="cls-8" d="M382.92,205.92c-.2.32-.41.3-.63,0A.39.39,0,0,1,382.92,205.92Z"/><polygon class="cls-8" points="384.25 314.06 384.33 314.14 384.24 314.23 384.14 314.14 384.25 314.06"/><path class="cls-9" d="M135.16,287.57c-1.21.16-1,1.28-1.34,2-1.3,3.12-2.69,6.15-5.55,8.36-.45-1,.17-1.39.57-1.84a22.36,22.36,0,0,0,5.38-11.94c.1-.66.09-1.29,1-1.37C135.17,284.38,135.16,286,135.16,287.57Z"/><polygon class="cls-8" points="384.42 319.8 384.63 319.83 384.67 320.03 384.47 319.99 384.42 319.8"/><path class="cls-9" d="M182.06,306.48c-.05.33-.18.61-.56.63a.59.59,0,0,1-.68-.71c0-.39.31-.53.64-.52A.61.61,0,0,1,182.06,306.48Z"/><path class="cls-9" d="M184.84,313.31c-.06.14-.09.35-.19.38s-.26-.09-.39-.15c.06-.13.09-.34.18-.38S184.71,313.25,184.84,313.31Z"/><path class="cls-9" d="M179.27,301a.73.73,0,0,1-.37-.93c0-.05.12-.08.18-.12l.19,1.05Z"/><path class="cls-9" d="M189.21,297.65l-.13.17c0-.06-.11-.13-.1-.19s.08-.12.13-.17Z"/><path class="cls-9" d="M182.81,314.2l-.27.08,0-.18Z"/><path class="cls-9" d="M179.27,301l.2.11-.2-.11Z"/><path class="cls-9" d="M329.68,227.71V217.63c3.13-1.65,5.95.21,8.9.81a35.78,35.78,0,0,0-8.3-3c-2-.54-2.36-1.43-1.55-3.24,1-2.3,1.92-4.67,2.86-7,1.74-.66,3.3.21,4.86.69a88.08,88.08,0,0,1,13.06,5.23,5.55,5.55,0,0,0,2.66,1,5.91,5.91,0,0,1-.38,1.34c-2,3.66-1.08,6.12,2.83,7.67a2.83,2.83,0,0,1,0,.41l0,0a1.62,1.62,0,0,0-.51,1.48l0,0c-.55.14-.47.6-.51,1l0,0c-.8.51-1.52,1.31-2.5.31,0,1.14.31,2.23-.09,2.88s-1.62.24-2.46.21a100.32,100.32,0,0,0-16.89.71A5.1,5.1,0,0,1,329.68,227.71ZM346,214.47a3.34,3.34,0,1,0-6.68-.17,3.34,3.34,0,0,0,6.68.17Zm1.61,7.67-7.94-3.63a1.93,1.93,0,0,1,.56,2.58c-.84,1.81,0,3.32,1.72,4.11s3.25.18,4.28-1.46C346.52,223.22,346.49,222.48,347.57,222.14Zm-10.85-14.21c-.61-1.27-2-1.41-3.1-1.73-.93-.26-1.37.71-1.23,1.32.35,1.48,1.9,1.47,3,1.85C336.3,209.67,336.45,208.68,336.72,207.93ZM352.64,222c-.48-1.35-1.91-1.44-3-1.83-.92-.32-1.25.56-1.27,1.3-.05,2,1.85,1.27,2.81,1.81S352.34,222.84,352.64,222Zm-19.43-1.52c.93-.07,2.14.25,2.14-1.21,0-1.71-1.38-1.13-2.29-1.18s-2.06-.31-2,1.25S332.4,220.35,333.21,220.49Z"/><path class="cls-6" d="M357,227.72q-.56-.08-.48.48l-4.92-.67.94-.33c1-.28,2.34.59,2.86-.91s-1.26-1.19-1.7-2a1.12,1.12,0,0,1-.05-.46l0,0c.53-.15.46-.61.51-1l0,0c.58-.35.49-.94.51-1.48l0,0,.43-.39,2-.08C357,223.25,357,225.49,357,227.72Z"/><path class="cls-4" d="M355,221.1l-.43.39a2.83,2.83,0,0,0,0-.41A1.76,1.76,0,0,1,355,221.1Z"/><path class="cls-4" d="M392.65,208.42a3.24,3.24,0,1,1-3.34,3A3.17,3.17,0,0,1,392.65,208.42Z"/><path class="cls-4" d="M402.73,216.64c-1,0-2.16.28-2.17-1.22s1.25-1.1,2.09-1.13,2.11-.34,2.11,1.16S403.53,216.55,402.73,216.64Z"/><path class="cls-4" d="M382.4,207.55c.85.16,2.11-.42,2.24,1.06s-1,1.34-2,1.3-2.26.39-2.22-1.3C380.49,207.17,381.64,207.7,382.4,207.55Z"/><path class="cls-4" d="M346,214.47a3.34,3.34,0,0,1-6.68-.17,3.34,3.34,0,1,1,6.68.17Z"/><path class="cls-4" d="M347.57,222.14c-1.08.34-1.05,1.08-1.38,1.6-1,1.64-2.52,2.26-4.28,1.46s-2.56-2.3-1.72-4.11a1.93,1.93,0,0,0-.56-2.58Z"/><path class="cls-4" d="M336.72,207.93c-.27.75-.42,1.74-1.32,1.44-1.11-.38-2.66-.37-3-1.85-.14-.61.3-1.58,1.23-1.32C334.77,206.52,336.11,206.66,336.72,207.93Z"/><path class="cls-4" d="M352.64,222c-.3.83-.65,1.74-1.48,1.28s-2.86.2-2.81-1.81c0-.74.35-1.62,1.27-1.3C350.73,220.57,352.16,220.66,352.64,222Z"/><path class="cls-4" d="M333.21,220.49c-.81-.14-2,.4-2.11-1.14s1.08-1.29,2-1.25,2.3-.53,2.29,1.18C335.35,220.74,334.14,220.42,333.21,220.49Z"/><path class="cls-4" d="M354.62,221.45c0,.54.07,1.13-.51,1.48A1.62,1.62,0,0,1,354.62,221.45Z"/><path class="cls-4" d="M354.14,222.89c-.05.39,0,.85-.51,1C353.67,223.49,353.59,223,354.14,222.89Z"/></svg>