<svg id="Capa_1" data-name="Capa 1" xmlns="http://www.w3.org/2000/svg" viewBox="0 0 518.05 397.36"><defs><style>.cls-1{fill:#61b770;}.cls-2{fill:#a7c256;}.cls-3{fill:#302f42;}.cls-4{fill:#eddaa6;}.cls-5{fill:#869b45;}.cls-6{fill:#b5136a;}.cls-7{fill:#889d46;}.cls-8{fill:#303042;}.cls-9{fill:#cfcce0;}</style></defs><path class="cls-1" d="M274.07,206.43a5.35,5.35,0,0,1,4.84,3.88q1.32,5.55,2.6,11.11c.38,1.66-.19,2.37-1.89,2.41-2.48.06-4.44-1.68-5.41-5.08-.92-3.21-1.68-6.46-2.45-9.71C271.3,207.08,272,206.3,274.07,206.43Z"/><path class="cls-1" d="M341.76,260.78a7.94,7.94,0,0,1,.44-1.53c2-3.25,3.88-6.53,5.95-9.71,1.17-1.79,2.79-1.89,4.55-.56,1.36,1,1.36,2.24.06,4-2.24,3-4.4,6-6.72,9-.53.69-2,1.57-2.28,1.34A9.46,9.46,0,0,1,341.76,260.78Z"/><path class="cls-1" d="M336.57,305.14c-.95,2.17-1.64,3.83-2.4,5.45-.54,1.14-1.16,2.24-1.78,3.35-.83,1.49-2,2.16-3.62,1.23-1.9-1.06-2.63-3-1.75-4.64,1.18-2.16,2.34-4.33,3.51-6.5.61-1.13,1.25-2.62,2.77-1.84C334.59,302.86,335.53,304.17,336.57,305.14Z"/><path class="cls-1" d="M339.75,217c-2.56-.89-5.2-1.61-7.67-2.7-1.72-.76-2.24-4.29-1-5.7a2,2,0,0,1,1.77-.31c2.82,1,5.61,2.07,8.38,3.19,1.39.57,2.42,1.48,1.89,3.23S341.4,216.72,339.75,217Z"/><path class="cls-1" d="M280.64,305.61c-2.66-1.17-5.34-2.26-7.95-3.53-1.4-.69-1.2-2.09-.56-3.12a2.52,2.52,0,0,1,2.1-.69c1.3.19,2.53.82,3.82,1.11a44.67,44.67,0,0,0,5.25.91c1.46.15,2.15.88,1.56,2.17A5.22,5.22,0,0,1,280.64,305.61Z"/><path class="cls-2" d="M276.81,205.23a92.72,92.72,0,0,1-19.05-24.45,89.73,89.73,0,0,1-10.54-31.89c-3.82-30.31,4.59-56.82,25.58-79.1A89.55,89.55,0,0,1,320.05,43c31-6.62,59,.18,83.18,20.76,17,14.48,27.43,33,31.4,55.05a93.75,93.75,0,0,1-6.17,54.1l-1-.39q-18.27-6.44-36.55-12.87c-5-1.74-10-3.44-14.94-5.15-1.94-3.4-3.85-6.81-5.5-10.37a2.29,2.29,0,0,1,.34-2.72A36.41,36.41,0,0,0,378,119.8a39.86,39.86,0,0,0-1.52-10.91c1.5,1.74,1.59,4.07,2.5,6.2a146.44,146.44,0,0,0,.69-18.78,15.08,15.08,0,0,0-4.17-10.41,31.9,31.9,0,0,0-6.14-5.1c-8.54-5.45-18-8.68-27.75-11a23.09,23.09,0,0,0-17.17,2.73c-6.66,3.81-11.33,9.51-15,16.13a3.05,3.05,0,0,1-1.12,1.38A13.06,13.06,0,0,0,303.08,96a30.51,30.51,0,0,0-2.62,10,68.23,68.23,0,0,0,.06,12.46,92.89,92.89,0,0,0-6.84-9.32A52,52,0,0,0,286.2,102c-.65-.47-1-.24-1.39.22s0,.78.33,1.06.4.4.62.57A53,53,0,0,1,298,117.87c1.11,1.77,2.2,3.55,3.29,5.33.13.54.25,1.09.38,1.63a34.93,34.93,0,0,0,2.77,8.32c.56,1.07,1.12,2.19,2.51,2.43a3.71,3.71,0,0,0,.12.68,170.69,170.69,0,0,1,5.91,18.32c1.61,6,2.85,12,4.11,18.06-3.88,3-7.74,6-11.63,9-3.23,2.46-6.48,4.87-9.72,7.31a14,14,0,0,0-1.4-3,31.63,31.63,0,0,0-6.71-8.87c-.67-.59-1.27-1-1.83.1-.34.69.32.91.65,1.21A30.38,30.38,0,0,1,294.29,190a53.21,53.21,0,0,1-5.61,4.2,8.53,8.53,0,0,0-1-1.13c-5.46-4.29-11.7-5.43-18.45-4.54-1.23.16-1.08.62-.48,1.26a28.39,28.39,0,0,0,9.07,6.65c1.87.85,3.91,1.07,5.84,1.71A28.91,28.91,0,0,0,276.81,205.23Zm16.51-70.78a43.82,43.82,0,0,0,5.34-.55c1.28-.17.83-.52.32-1.13a34.25,34.25,0,0,0-4-4.05,34.69,34.69,0,0,0-11.21-6.67c-5.06-1.78-10.28-2-15.55-1.65a14.73,14.73,0,0,0-2.2.3c-.75.15-1.13.47-.39,1.18s1.65,1.66,2.47,2.48C274.74,131.08,282.83,134.39,293.32,134.45Zm-10-40.15c.32-4.44-3.81-8.54-8.33-8.48a8.43,8.43,0,1,0-.09,16.86A8.27,8.27,0,0,0,283.34,94.3Zm2.8,72.73a8.43,8.43,0,1,0-8.52,8.39A8.4,8.4,0,0,0,286.14,167Z"/><path class="cls-3" d="M295.7,188.91c3.24-2.44,6.49-4.85,9.72-7.31,3.89-3,7.75-6,11.63-9a3.56,3.56,0,0,0,1.4-1.12c.35-.22.72-.42,1.05-.67,3.38-2.54,6.75-5.1,10.13-7.65a43.4,43.4,0,0,0,8.19,9c11.16,9.07,23.23,6.41,31.53-1.84,4.32-4.3,6.19-9.78,6.57-15.8,5,1.71,10,3.41,14.94,5.15q18.28,6.42,36.55,12.87l1,.39a91.45,91.45,0,0,1-19.33,28.87,94.43,94.43,0,0,1-50.36,27,90.76,90.76,0,0,1-25.95,1.32A93.7,93.7,0,0,1,277,205.45a1.77,1.77,0,0,1-.16-.22,28.91,28.91,0,0,1,6.82-7,48,48,0,0,0,5.05-4,53.21,53.21,0,0,0,5.61-4.2A4.51,4.51,0,0,0,295.7,188.91Z"/><path class="cls-4" d="M375.92,154.54c-.38,6-2.25,11.5-6.57,15.8-8.3,8.25-20.37,10.91-31.53,1.84a43.4,43.4,0,0,1-8.19-9c-.53-2.64-1.09-5.27-1.56-7.93a1.87,1.87,0,0,0-1.3-1.58,37.61,37.61,0,0,1-11.19-7.26c-1.59-1.49-2.82-3.31-4.48-4.73-1.1-2.19-2.64-4.14-3.6-6.42,3.87-2.86,6.55-.42,9.25,2.25.77-6.92,1.51-13.66,2.26-20.4.5-4.5,1-9,1.51-13.52.06-.52-.08-1.17,1-1.07,4,.36,8,.67,12,.85a111.35,111.35,0,0,0,23.78-1.19c2.89-.49,5.71-1.42,8.72-1.23,4.5.28,9.15,3.74,10.43,7.92A39.86,39.86,0,0,1,378,119.8a36.41,36.41,0,0,1-7.22,21.65,2.29,2.29,0,0,0-.34,2.72C372.07,147.73,374,151.14,375.92,154.54Z"/><path class="cls-3" d="M376.46,108.89c-1.28-4.18-5.93-7.64-10.43-7.92-3-.19-5.83.74-8.72,1.23a111.35,111.35,0,0,1-23.78,1.19c-4-.18-8-.49-12-.85-1.06-.1-.92.55-1,1.07-.52,4.51-1,9-1.51,13.52-.75,6.74-1.49,13.48-2.26,20.4-2.7-2.67-5.38-5.11-9.25-2.25l-.59.3c-1.39-.24-2-1.36-2.51-2.43a34.93,34.93,0,0,1-2.77-8.32c-.13-.54-.25-1.09-.38-1.63-.24-1.6-.48-3.19-.73-4.79a68.23,68.23,0,0,1-.06-12.46,30.51,30.51,0,0,1,2.62-10,13.06,13.06,0,0,1,5.23-5.89,3.05,3.05,0,0,0,1.12-1.38c3.66-6.62,8.33-12.32,15-16.13a23.09,23.09,0,0,1,17.17-2.73c9.78,2.28,19.21,5.51,27.75,11a31.9,31.9,0,0,1,6.14,5.1,15.08,15.08,0,0,1,4.17,10.41,146.44,146.44,0,0,1-.69,18.78C378.05,113,378,110.63,376.46,108.89Z"/><path class="cls-5" d="M293.32,134.45c-10.49-.06-18.58-3.37-25.25-10.09-.82-.82-1.62-1.67-2.47-2.48s-.36-1,.39-1.18a14.73,14.73,0,0,1,2.2-.3c5.27-.3,10.49-.13,15.55,1.65A34.69,34.69,0,0,1,295,128.72a34.25,34.25,0,0,1,4,4.05c.51.61,1,1-.32,1.13A43.82,43.82,0,0,1,293.32,134.45Z"/><path class="cls-6" d="M283.34,94.3a8.27,8.27,0,0,1-8.42,8.38A8.43,8.43,0,1,1,275,85.82C279.53,85.76,283.66,89.86,283.34,94.3Z"/><path class="cls-6" d="M286.14,167a8.43,8.43,0,1,1-8.42-8.46A8.42,8.42,0,0,1,286.14,167Z"/><path class="cls-5" d="M288.68,194.23a48,48,0,0,1-5.05,4c-1.93-.64-4-.86-5.84-1.71a28.39,28.39,0,0,1-9.07-6.65c-.6-.64-.75-1.1.48-1.26,6.75-.89,13,.25,18.45,4.54A8.53,8.53,0,0,1,288.68,194.23Z"/><path class="cls-7" d="M306.91,135.58l.59-.3c1,2.28,2.5,4.23,3.6,6.42a5.66,5.66,0,0,0,.16.82c1.86,5.65,3.42,11.38,4.79,17.16a110.82,110.82,0,0,1,2.4,11.84,3.56,3.56,0,0,1-1.4,1.12c-1.26-6-2.5-12.09-4.11-18.06A170.69,170.69,0,0,0,307,136.26,3.71,3.71,0,0,1,306.91,135.58Z"/><path class="cls-5" d="M300.52,118.41c.25,1.6.49,3.19.73,4.79-1.09-1.78-2.18-3.56-3.29-5.33a53,53,0,0,0-12.2-14.06c-.22-.17-.41-.39-.62-.57s-.88-.47-.33-1.06.74-.69,1.39-.22a52,52,0,0,1,7.48,7.13A92.89,92.89,0,0,1,300.52,118.41Z"/><path class="cls-7" d="M295.7,188.91a4.51,4.51,0,0,1-1.41,1.12,30.38,30.38,0,0,0-7.88-11.72c-.33-.3-1-.52-.65-1.21.56-1.12,1.16-.69,1.83-.1a31.63,31.63,0,0,1,6.71,8.87A14,14,0,0,1,295.7,188.91Z"/><path class="cls-2" d="M318.45,171.52a110.82,110.82,0,0,0-2.4-11.84c-1.37-5.78-2.93-11.51-4.79-17.16a5.66,5.66,0,0,1-.16-.82c1.66,1.42,2.89,3.24,4.48,4.73a37.61,37.61,0,0,0,11.19,7.26,1.87,1.87,0,0,1,1.3,1.58c.47,2.66,1,5.29,1.56,7.93-3.38,2.55-6.75,5.11-10.13,7.65C319.17,171.1,318.8,171.3,318.45,171.52Z"/><path class="cls-2" d="M120.83,338.19c-.49.1-.77-.27-1.09-.52-19.81-15.28-32.41-35.1-36.43-59.85-5.1-31.51,3.54-59.09,25.57-82.22a89.84,89.84,0,0,1,51-27.15c29.45-5,55.91,2.06,78.73,21.44,17.09,14.5,27.81,33,31.54,55.11,5.27,31.33-3.11,58.85-24.66,82.28a27.85,27.85,0,0,1-4.57,4.31c-1.28-2.55-3-4.82-4.51-7.22-1.32-2.11-1.35-2.09-3.73-1.67a31.05,31.05,0,0,0-2.79-2.46,21.54,21.54,0,0,0,12.22-3.32A28.9,28.9,0,0,0,248,312c.45-.48,1.28-1.16-.32-1.37a28.15,28.15,0,0,0-8.35.06A22.15,22.15,0,0,0,226.18,318l-5.31-1.79c2.17-6.07,4.88-11.82,9.9-16.14.42-.35.58-.69.13-1.16s-.68-.6-1.15-.14-.74.56-1.07.88c-4.74,4.5-7.44,10.19-9.48,16.26-1.25-.08-2.5-.21-3.75-.23a47.23,47.23,0,0,1-7.52-.24c-3.75-.64-7.5-1.27-10.93-3.06.64-4.07,1.36-8.13,1.91-12.21.34-2.52,1.12-5,1.15-7.54l1.77-1.8a46,46,0,0,0,13.7-32.76,63.62,63.62,0,0,0-1.12-10.58c.65-1.12,1.33-2.23,2-3.36,4-7.17,8.75-13.73,15.36-18.77.4-.31.84-.52.34-1.07s-.71-.88-1.36-.3c-.9.8-1.91,1.48-2.8,2.3a64.37,64.37,0,0,0-11.39,14.07c-.93,1.54-1.58,3.27-2.9,4.57A48.67,48.67,0,0,0,209,234.42c9.49.14,14.89-3.89,16.22-12,1-6.18-3.27-12.81-9.58-14.73A13.32,13.32,0,0,0,204,209.37c-3.55,2.34-5.52,5.76-6.19,10.34a13,13,0,0,1-.87-5.1,12.82,12.82,0,0,1,.89-4.66,13.8,13.8,0,0,1,2.45-4.06,14.17,14.17,0,0,1,3.68-3,22.31,22.31,0,0,1,4.24-1.65,13,13,0,0,0-10.46,4.18c-3.66,3.9-4.58,8.53-3.2,13.73q-27.9-15.75-53.86,2.62c-2-7.19-8-11.48-14.89-10.75a13.8,13.8,0,0,0-12.22,12.48A13.57,13.57,0,0,0,117.07,234a14.3,14.3,0,0,0,10.29,4.58,12.85,12.85,0,0,1-13.21-.9c-6.65-4.79-7.63-11.15-4.43-18.59-3.25,2.53-5.42,9.33-2.58,15.11a13.49,13.49,0,0,0,6.77,6.63c4.34,1.93,8.6,1.52,13-.8-.27.72-.42,1.14-.58,1.56A46.16,46.16,0,0,0,143.16,296,41.21,41.21,0,0,0,159,302.9a14.58,14.58,0,0,1-.18,4.47c-.75,6.23-3.68,11.31-10.65,13.23A58.53,58.53,0,0,0,129,329.34C125.7,331.73,122.67,334.42,120.83,338.19Zm103.81-81.71a28.86,28.86,0,0,0,7.12-.69c8-1.53,14.16-6,19.51-11.85.71-.78.29-1.06-.43-1.17a40.06,40.06,0,0,0-10.71-.24c-9.14,1.09-16.49,5.56-22.42,12.49-.44.51-.63.79.3.93A37,37,0,0,0,224.64,256.48Zm8.87-40.14c-.29,4.64,4.05,8.47,8.29,8.43a8.44,8.44,0,1,0,.1-16.88C237.33,207.81,233.19,211.93,233.51,216.34Zm5.66,64.3a8.43,8.43,0,1,0,8.39,8.49A8.4,8.4,0,0,0,239.17,280.64Z"/><path class="cls-4" d="M197,312.4c3.43,1.79,7.18,2.42,10.93,3.06a47.23,47.23,0,0,0,7.52.24c1.25,0,2.5.15,3.75.23l1.67.3,5.31,1.79,3.72,2.22a31.05,31.05,0,0,1,2.79,2.46c-4.92,1.09-9.85,2.15-14.76,3.28q-37.6,8.64-75.19,17.32c-3.4.79-6.84,1.4-10.17,2.5a77.65,77.65,0,0,1-11.33-6.92c-.2-.13-.27-.46-.41-.69,1.84-3.77,4.87-6.46,8.18-8.85a58.53,58.53,0,0,1,19.12-8.74c7-1.92,9.9-7,10.65-13.23a14.58,14.58,0,0,0,.18-4.47l-.18-3.07a2.9,2.9,0,0,0-1.41-2.5,26.85,26.85,0,0,1-8.75-9.67c-.59-1.07-.82-2.5-2.47-2.6-.23,0-.47-.31-.64-.53a10.79,10.79,0,0,1-2.33-8.38c.09-.77.44-1.7,1.45-1.55s.67-.37.66-.78a31.89,31.89,0,0,1,.6-5.42c.39-2.31,1.23-4.24,3.46-5.38a26.11,26.11,0,0,0,3-2.08v0c.24,1.71-.66,3.21-.88,4.85-.09.66-.57,1.28.46,1.71.85.35,1.43.42,2-.44a21.57,21.57,0,0,1,1.8-2.15l5.88-6.83v10.14c0,2.1,0,2.09,2,2.31a48.53,48.53,0,0,0,15.07-.56c7.1-1.45,13.62-4,18.3-10.14A27.38,27.38,0,0,1,200.8,270c1.3-.68,2.1-.09,2.51,1.08a10.73,10.73,0,0,1-.52,8.56c-.29.59-.79,1.33-1.44,1.15-1.07-.3-1.07.35-1.25,1a27.17,27.17,0,0,1-11,15.43c-1.22.84-1.73,1.69-1.41,3.09.05,5.42,3.11,8.8,7.58,11.25A5.28,5.28,0,0,0,197,312.4Z"/><path class="cls-8" d="M132.57,345.8c3.33-1.1,6.77-1.71,10.17-2.5q37.59-8.69,75.19-17.32c4.91-1.13,9.84-2.19,14.76-3.28,2.38-.42,2.41-.44,3.73,1.67,1.5,2.4,3.23,4.67,4.51,7.22-1.78,2.16-4.1,3.71-6.24,5.47-.64.53-1.35,1-2,1.46-1.31.33-2.61.68-3.92,1-.9.22-2.12.08-2.64.63s.1,1.85.08,2.81a94.29,94.29,0,0,1-33.87,12.57,95.29,95.29,0,0,1-27.81.45,94.29,94.29,0,0,1-31.33-9.81C133,346.05,132.77,345.92,132.57,345.8Z"/><path class="cls-9" d="M226.18,342.94c0-1-.73-2.14-.08-2.81s1.74-.41,2.64-.63c1.31-.3,2.61-.65,3.92-1A39,39,0,0,1,226.18,342.94Z"/><path class="cls-8" d="M187.73,300.34c-.32-1.4.19-2.25,1.41-3.09a27.17,27.17,0,0,0,11-15.43c.18-.64.18-1.29,1.25-1,.65.18,1.15-.56,1.44-1.15a10.73,10.73,0,0,0,.52-8.56c-.41-1.17-1.21-1.76-2.51-1.08A27.38,27.38,0,0,0,197,259.8c-4.68,6.13-11.2,8.69-18.3,10.14a48.53,48.53,0,0,1-15.07.56c-2-.22-2-.21-2-2.31V258.05l-5.88,6.83a21.57,21.57,0,0,0-1.8,2.15c-.57.86-1.15.79-2,.44-1-.43-.55-1.05-.46-1.71.22-1.64,1.12-3.14.88-4.85l.16.1.05-.1-.2,0a26.11,26.11,0,0,1-3,2.08c-2.23,1.14-3.07,3.07-3.46,5.38a31.89,31.89,0,0,0-.6,5.42c0,.41.22.9-.66.78s-1.36.78-1.45,1.55a10.79,10.79,0,0,0,2.33,8.38c.17.22.41.52.64.53,1.65.1,1.88,1.53,2.47,2.6a26.85,26.85,0,0,0,8.75,9.67,2.9,2.9,0,0,1,1.41,2.5l.18,3.07a41.21,41.21,0,0,1-15.8-6.93,46.16,46.16,0,0,1-16.84-54.42c.16-.42.31-.84.58-1.56-4.39,2.32-8.65,2.73-13,.8a13.49,13.49,0,0,1-6.77-6.63c-2.84-5.78-.67-12.58,2.58-15.11-3.2,7.44-2.22,13.8,4.43,18.59a12.85,12.85,0,0,0,13.21.9A14.3,14.3,0,0,1,117.07,234a13.57,13.57,0,0,1-3.52-10.45A13.8,13.8,0,0,1,125.77,211c6.9-.73,12.85,3.56,14.89,10.75q26-18.34,53.86-2.62c-1.38-5.2-.46-9.83,3.2-13.73a13,13,0,0,1,10.46-4.18,22.31,22.31,0,0,0-4.24,1.65,14.17,14.17,0,0,0-3.68,3,13.8,13.8,0,0,0-2.45,4.06,12.82,12.82,0,0,0-.89,4.66,13,13,0,0,0,.87,5.1c.67-4.58,2.64-8,6.19-10.34a13.32,13.32,0,0,1,11.67-1.71c6.31,1.92,10.59,8.55,9.58,14.73-1.33,8.14-6.73,12.17-16.22,12A48.67,48.67,0,0,1,213.62,245c.27.85.53,1.71.79,2.56a63.62,63.62,0,0,1,1.12,10.58,46,46,0,0,1-13.7,32.76l-1.77,1.8a13.75,13.75,0,0,0-2.2,1.75A45.16,45.16,0,0,1,187.73,300.34Z"/><path class="cls-5" d="M224.64,256.48A37,37,0,0,1,218,256c-.93-.14-.74-.42-.3-.93,5.93-6.93,13.28-11.4,22.42-12.49a40.06,40.06,0,0,1,10.71.24c.72.11,1.14.39.43,1.17-5.35,5.86-11.55,10.32-19.51,11.85A28.86,28.86,0,0,1,224.64,256.48Z"/><path class="cls-6" d="M233.51,216.34c-.32-4.41,3.82-8.53,8.39-8.45a8.44,8.44,0,1,1-.1,16.88C237.56,224.81,233.22,221,233.51,216.34Z"/><path class="cls-6" d="M239.17,280.64a8.43,8.43,0,1,1-8.46,8.42A8.39,8.39,0,0,1,239.17,280.64Z"/><path class="cls-5" d="M229.9,320.24,226.18,318a22.15,22.15,0,0,1,13.16-7.32,28.15,28.15,0,0,1,8.35-.06c1.6.21.77.89.32,1.37a28.9,28.9,0,0,1-5.89,4.91A21.54,21.54,0,0,1,229.9,320.24Z"/><path class="cls-5" d="M214.41,247.51l-.79-2.56c1.32-1.3,2-3,2.9-4.57a64.37,64.37,0,0,1,11.39-14.07c.89-.82,1.9-1.5,2.8-2.3.65-.58,1-.13,1.36.3s.06.76-.34,1.07c-6.61,5-11.36,11.6-15.36,18.77C215.74,245.28,215.06,246.39,214.41,247.51Z"/><path class="cls-5" d="M220.87,316.23l-1.67-.3c2-6.07,4.74-11.76,9.48-16.26.33-.32.74-.56,1.07-.88s.78-.26,1.15.14.29.81-.13,1.16C225.75,304.41,223,310.16,220.87,316.23Z"/><path class="cls-5" d="M197.86,294.4a13.75,13.75,0,0,1,2.2-1.75c0,2.57-.81,5-1.15,7.54-.55,4.08-1.27,8.14-1.91,12.21a5.28,5.28,0,0,1-1.69-.81c.09-.41.23-.81.28-1.22.44-3.68,1.08-7.32,1.62-11C197.46,297.74,198.16,296.13,197.86,294.4Z"/><path class="cls-2" d="M197.86,294.4c.3,1.73-.4,3.34-.65,5-.54,3.66-1.18,7.3-1.62,11-.05.41-.19.81-.28,1.22-4.47-2.45-7.53-5.83-7.58-11.25A45.16,45.16,0,0,0,197.86,294.4Z"/><path class="cls-9" d="M152.33,260.94l.2,0-.05.1-.16-.1Z"/></svg>