<svg id="Capa_1" data-name="Capa 1" xmlns="http://www.w3.org/2000/svg" viewBox="0 0 518.05 397.36"><defs><style>.cls-1{fill:#61b770;}.cls-2{fill:#a9c359;}.cls-3{fill:#a7c256;}.cls-4{fill:#424058;}.cls-5{fill:#313043;}.cls-6{fill:#eddaa6;}.cls-7{fill:#c9c8c9;}.cls-8{fill:#f0b2b4;}.cls-9{fill:#fefefe;}</style></defs><path class="cls-1" d="M442.61,145a4.63,4.63,0,0,1-4.19-3.36c-.77-3.21-1.51-6.42-2.26-9.64-.33-1.43.16-2,1.64-2.09,2.15-.05,3.85,1.46,4.69,4.41.8,2.78,1.46,5.6,2.12,8.42C445,144.39,444.37,145.06,442.61,145Z"/><path class="cls-1" d="M383.91,97.82a7.2,7.2,0,0,1-.38,1.33c-1.7,2.82-3.37,5.66-5.17,8.42-1,1.55-2.41,1.64-3.94.48-1.18-.88-1.18-1.94-.05-3.45,1.94-2.6,3.82-5.25,5.82-7.8.47-.59,1.7-1.35,2-1.16A8.23,8.23,0,0,1,383.91,97.82Z"/><path class="cls-1" d="M388.41,59.35c.82-1.88,1.42-3.32,2.08-4.73.47-1,1-1.94,1.54-2.9.72-1.29,1.71-1.87,3.15-1.07,1.64.92,2.28,2.62,1.51,4l-3.05,5.64c-.52,1-1.08,2.27-2.4,1.59A14.24,14.24,0,0,1,388.41,59.35Z"/><path class="cls-1" d="M385.65,135.83c2.23.76,4.51,1.39,6.65,2.33,1.49.66,1.95,3.72.86,5a1.78,1.78,0,0,1-1.54.27c-2.45-.86-4.87-1.79-7.27-2.77-1.21-.49-2.1-1.28-1.64-2.8S384.23,136,385.65,135.83Z"/><path class="cls-1" d="M436.92,58.94c2.3,1,4.63,2,6.89,3.07,1.21.59,1,1.8.48,2.7a2.17,2.17,0,0,1-1.82.6c-1.12-.17-2.19-.71-3.3-1a39.53,39.53,0,0,0-4.56-.79c-1.27-.13-1.87-.76-1.36-1.88A4.54,4.54,0,0,1,436.92,58.94Z"/><path class="cls-2" d="M142.41,319a4.64,4.64,0,0,1-4.2-3.35c-.76-3.22-1.5-6.43-2.25-9.65-.33-1.43.16-2.05,1.64-2.09,2.14,0,3.85,1.46,4.69,4.41.79,2.78,1.46,5.6,2.12,8.42C144.81,318.39,144.17,319.07,142.41,319Z"/><path class="cls-2" d="M83.7,271.82a6.48,6.48,0,0,1-.38,1.33c-1.7,2.82-3.36,5.66-5.16,8.42-1,1.55-2.41,1.64-4,.49-1.17-.89-1.17-1.95,0-3.46,1.94-2.6,3.81-5.25,5.82-7.8.47-.59,1.7-1.35,2-1.16A8.23,8.23,0,0,1,83.7,271.82Z"/><path class="cls-2" d="M88.21,233.35c.82-1.88,1.41-3.32,2.08-4.73.46-1,1-1.94,1.54-2.9.72-1.29,1.7-1.87,3.14-1.07,1.65.92,2.28,2.62,1.52,4l-3,5.65c-.53,1-1.08,2.26-2.4,1.58A14,14,0,0,1,88.21,233.35Z"/><path class="cls-2" d="M85.45,309.83c2.22.76,4.51,1.39,6.65,2.34,1.49.65,1.94,3.71.85,4.94a1.78,1.78,0,0,1-1.54.27c-2.44-.86-4.86-1.79-7.26-2.77-1.21-.49-2.1-1.28-1.65-2.8S84,310,85.45,309.83Z"/><path class="cls-2" d="M136.71,232.94c2.3,1,4.64,2,6.89,3.07,1.22.59,1.05,1.81.49,2.7a2.18,2.18,0,0,1-1.82.6c-1.13-.17-2.19-.71-3.31-1a39.16,39.16,0,0,0-4.56-.79c-1.26-.13-1.86-.76-1.35-1.88A4.56,4.56,0,0,1,136.71,232.94Z"/><path class="cls-3" d="M227.75,204.85c.11-.44.23-.85.34-1.27.47-1.79.94-3.57,1.4-5.37a2.28,2.28,0,0,0-.15-1.5,17.24,17.24,0,0,1-1.1-3.44A12.85,12.85,0,0,1,230.62,183a13.92,13.92,0,0,1,3.87-3.74,12.1,12.1,0,0,1,4.26-1.68,15.21,15.21,0,0,1,2.33-.24,14.74,14.74,0,0,1,6.41,1.28,12.79,12.79,0,0,1,6.06,5.74,14.2,14.2,0,0,1,1.46,4.39,13.83,13.83,0,0,1,.19,2.73,12.65,12.65,0,0,1-1.24,5.2,13.57,13.57,0,0,1-7.34,6.89,12.47,12.47,0,0,1-3.12.81,14.51,14.51,0,0,1-7.75-1.2,1.93,1.93,0,0,0-1.34-.07l-6.54,1.72Zm3.82-3.8c1-.28,2-.55,3-.84a2.19,2.19,0,0,1,1.75.19,10.48,10.48,0,0,0,4.39,1.36,10.08,10.08,0,0,0,3.24-.24,10.82,10.82,0,0,0,8.23-13.12,11.09,11.09,0,0,0-1.58-3.65,10.74,10.74,0,0,0-4.42-3.73,10.63,10.63,0,0,0-4-1,10,10,0,0,0-2.88.25,11,11,0,0,0-5.69,3.18,10.6,10.6,0,0,0-2.91,6.48,10.76,10.76,0,0,0,.15,2.89,11.42,11.42,0,0,0,1.27,3.55,2,2,0,0,1,.21,1.34c-.18.81-.39,1.61-.59,2.41C231.75,200.42,231.66,200.72,231.57,201.05Z"/><path class="cls-3" d="M238.48,189.76a9.45,9.45,0,0,0,1.1,1.62,9,9,0,0,0,3,2.28,2,2,0,0,0,.42.13.67.67,0,0,0,.64-.29c.15-.2.28-.41.43-.61a3.05,3.05,0,0,1,.43-.45,1,1,0,0,1,1-.21,5.28,5.28,0,0,1,2.09,1.14,1.62,1.62,0,0,1,0,2.54,3.73,3.73,0,0,1-3,1,7.87,7.87,0,0,1-2.22-.65,12.93,12.93,0,0,1-4-2.55,12,12,0,0,1-3-4.55,7.12,7.12,0,0,1-.34-1.11,2.9,2.9,0,0,1,.49-2.19,3.23,3.23,0,0,1,1-1,1.42,1.42,0,0,1,1.71.2,3.25,3.25,0,0,1,.64.91,5,5,0,0,1,.53,1.41,2.18,2.18,0,0,1-.52,1.92C238.78,189.45,238.64,189.59,238.48,189.76Z"/><path class="cls-4" d="M290.28,211.09c0,.9-.07,1.81-.07,2.72,0,24.94-.15,49.89.08,74.84.07,8.05-5.3,13.73-13.84,13.71-43.86-.15-87.71-.07-131.56-.07-8.81,0-13.64-4.81-13.64-13.55q0-96.27,0-192.55c0-8.91,4.78-13.67,13.72-13.67,43.93,0,87.86.07,131.79-.07,7.51,0,13.57,5.06,13.52,13.55-.19,34-.08,68-.07,102.06,0,1,0,2,.06,2.94Q290.28,206,290.28,211.09ZM139.37,192.37V289c0,4.67.94,5.63,5.52,5.63H276.64c4.44,0,5.51-1.06,5.51-5.46V95.71c0-4.45-1-5.51-5.45-5.51H144.94c-4.58,0-5.57,1-5.57,5.57ZM210.18,85.23c-.59.15-1,.48-.89,1.11a.88.88,0,0,0,1.1.84.86.86,0,0,0,.77-1A1,1,0,0,0,210.18,85.23Z"/><path class="cls-5" d="M292.77,332c-3-.89-3-.89-1.87-4,9.62-26.53,19.33-53,28.78-79.62,2.95-8.29,5.27-16.8,7.67-25.27a71.89,71.89,0,0,0,1.43-8.69c7.72.44,15.35,1.63,23.16,2.38-2.28,3.13-2.28,3.13-5.4,4.2a4.75,4.75,0,0,0-3.2,5.14,4.73,4.73,0,0,0,9.37.09c.1-.58-.15-1.26.41-1.7,2.63-2.09,4.88-4.67,7.88-6.3,5.69,10.18,7,21.17,6.08,32.6-.12,1.42-.15,2.86-.13,4.29q.56,37.59,1.17,75.17c0,1.59-.25,2.44-2,2.22l-8.91.46c-3.26,0-3.31,0-3.84-3.35-.65-4.1-1.22-8.21-1.83-12.31l-7.08-47.93c-.81-5.47-1.63-10.93-2.54-17.09-2.36,5-4.46,9.27-6.46,13.63-6.23,13.54-13.16,26.77-18.47,40.73a40.42,40.42,0,0,1-5.37,10.43,28.79,28.79,0,0,0-4,7.76c-.7,1.9-1.48,3.78-2.22,5.68-1.35,3.43-1.35,3.43-4.84,3.16A47,47,0,0,0,292.77,332Z"/><path class="cls-5" d="M329.5,212.09c-.91,0-.8-.67-.9-1.24-.62-3.6-1.24-7.19-2.16-10.81-.46,1.71-.94,3.42-1.37,5.14-.15.61-.17,1.25-1.07,1l-9.37-3.81c-.72-.32-.39-.84-.27-1.34,1.64-7,3.29-14.07,4.89-21.11a6.1,6.1,0,0,1,4.69-4.94c1.74-.46,3.4-1.25,5.15-1.66,2.68-.63,4.92-1.77,6.19-4.34a2.11,2.11,0,0,1,2.39-1.19c4.06.32,8.13.55,12.19.81.66,0,1.47-.12,1.65.79,1,5.15,5.64,6.08,9.44,7.64a6.38,6.38,0,0,1,3.94,4.19q2.85,8.09,5.69,16.16a60.08,60.08,0,0,1-8.35,8c-.63-1.49-1.25-3-2.07-4.93l-1.91,9.41c-.45.75-1.05.62-1.76.37C347.23,207,338.32,208.91,329.5,212.09Z"/><path class="cls-5" d="M331.46,164.19c-1.25-.56-1.38-1.65-1.37-2.84,0-2.41-.07-4.83,0-7.24.06-1.39-.38-2-1.78-1.74s-1.78-.46-1.58-1.78a11.37,11.37,0,0,1,5.18-8.13c1.32-.86,2.59-1.77,3.85-2.72,4.74-3.57,10-4.28,15.32-1.76a13.85,13.85,0,0,1,8.43,12.65c.15,3.69,0,7.4.08,11.09,0,1.66-.65,2.58-2.39,2.56-4.56-.07-9,1.12-13.39,1.9-1.76.31-3,0-3.59-1.73a51.85,51.85,0,0,0,3.38-8.81c.42-1.83.58-3.44-1.44-4.64.43,1.49-.52,1.37-1.41,1.37-2.57,0-5.14.12-7.7-.05-2-.12-2.25.67-1.94,2.4a11,11,0,0,0,6.83,8.64c.4.17,1.61-.25,1.24,1l-7.54-.11-.08-.1Z"/><path class="cls-6" d="M329.5,212.09c8.82-3.18,17.73-5.14,27-1.9.71.25,1.31.38,1.76-.37l4-4.48a60.08,60.08,0,0,0,8.35-8,30,30,0,0,0,2.21,5.59c1.19,2.76,1.06,3.91-1.24,5.93-3.15,2.76-6.38,5.42-9.57,8.15a8.74,8.74,0,0,0-1,1.19c-3,1.63-5.25,4.21-7.88,6.3-.56.44-.31,1.12-.41,1.7a4.73,4.73,0,0,1-9.37-.09,4.75,4.75,0,0,1,3.2-5.14c3.12-1.07,3.12-1.07,5.4-4.2-7.81-.75-15.44-1.94-23.16-2.38A2.7,2.7,0,0,0,329.5,212.09Z"/><path class="cls-6" d="M314.63,202.34l9.37,3.81c-1.3.67-1.33,2.11-1.88,3.2-1,2.06-2.48,3.11-4.86,2.8q-10.38-1.35-20.77-2.6c-2.26-.28-4.54-.54-6.21,1.54q0-5.06,0-10.09a5.6,5.6,0,0,0,5.07,2.2c5.85-.29,11.73.19,17.57-.48C313.5,202.65,314.13,202.77,314.63,202.34Z"/><path class="cls-5" d="M296.34,346.1c-6.41-2.75-12.8-5.56-19.25-8.19-1.65-.67-1.6-1.26-.75-2.53a9.29,9.29,0,0,1,10.74-3.58c1.77.61,3.49,1.33,5.24,2a49.52,49.52,0,0,0,7.22,3.1c1.3.46,1.57,1.17.92,2.49-1,2.11-1.85,4.34-2.76,6.52C297.3,346.37,296.82,346.22,296.34,346.1Z"/><path class="cls-5" d="M365.78,336.87c1.26-.1,1.84.29,1.76,1.74-.15,2.59-.06,5.19-.07,7.79l-23.82,0a9.26,9.26,0,0,1,9.53-9.5l4.5-.06Z"/><path class="cls-7" d="M343.65,346.43l23.82,0,47.85.05c8.54,0,17.08,0,25.62,0a2.07,2.07,0,0,1,2,.61H269a3.54,3.54,0,0,1,2.68-.61c7.41,0,14.82,0,22.23,0,.8,0,1.67.28,2.39-.35.48.12,1,.27,1.36-.18.46.71,1.19.54,1.85.54Z"/><path class="cls-6" d="M339.21,164.36c.37-1.25-.84-.83-1.24-1a11,11,0,0,1-6.83-8.64c-.31-1.73-.07-2.52,1.94-2.4,2.56.17,5.13,0,7.7.05.89,0,1.84.12,1.41-1.37,2,1.2,1.86,2.81,1.44,4.64a51.85,51.85,0,0,1-3.38,8.81C339.89,164.57,339.53,164.67,339.21,164.36Z"/><path class="cls-8" d="M365.78,336.87h-8.1a10.61,10.61,0,0,0-.45-3.92l8.91-.46C365.43,333.9,365.85,335.41,365.78,336.87Z"/><path class="cls-8" d="M299.54,336.91a49.52,49.52,0,0,1-7.22-3.1l.45-1.84a46.69,46.69,0,0,1,7.78,1.69C300.6,334.86,299.69,335.77,299.54,336.91Z"/><path class="cls-8" d="M331.46,164.19l.13,0,.08.1C331.52,164.5,331.5,164.32,331.46,164.19Z"/><path class="cls-9" d="M139.37,192.37V95.77c0-4.58,1-5.57,5.57-5.57H276.7c4.4,0,5.45,1.06,5.45,5.51V289.13c0,4.4-1.07,5.46-5.51,5.46H144.89c-4.58,0-5.52-1-5.52-5.63Zm64.85,61c.11-.52.2-1,.32-1.55a23.53,23.53,0,0,0-13.11-26.86,23.16,23.16,0,0,0-28.63,7.76c-5.56,8-5.79,16.5-1.51,25.19-.31,1.43.61,2.44,1.3,3.49,9.13,13.91,30.11,13.62,38.86-.59.75-1.21,2-2.4,1.5-4.16l1-2.69Zm16-49.85c-.25,1.34.59,2.31,1.23,3.3,8.42,13.1,27.83,14,37.39,1.75,1.15-1.49,2.76-2.88,2.54-5.1l.81-1.87a23.62,23.62,0,0,0-8.6-29.18,23.26,23.26,0,0,0-30.25,4.07c-5.88,6.69-7.09,14.44-4.88,22.89l.24.6ZM204,137.74a23.35,23.35,0,1,0-46.69-.17c.08,13,9,24.25,22.93,24.45S204,150.26,204,137.74Z"/><path class="cls-9" d="M210.18,85.23a1,1,0,0,1,1,1,.86.86,0,0,1-.77,1,.88.88,0,0,1-1.1-.84C209.23,85.71,209.59,85.38,210.18,85.23Z"/><path class="cls-9" d="M299.54,336.91c.15-1.14,1.06-2.05,1-3.25,3.5.27,3.5.27,4.85-3.16.74-1.9,1.52-3.78,2.22-5.68a28.79,28.79,0,0,1,4-7.76A40.42,40.42,0,0,0,317,306.63c5.31-14,12.24-27.19,18.47-40.73,2-4.36,4.1-8.66,6.46-13.63.91,6.16,1.73,11.62,2.54,17.09l7.08,47.93c.61,4.1,1.18,8.21,1.83,12.31.53,3.35.58,3.34,3.84,3.35a10.61,10.61,0,0,1,.45,3.92l-4.5.06a9.26,9.26,0,0,0-9.53,9.5l-44.1,0c-.66,0-1.39.17-1.85-.54.91-2.18,1.72-4.41,2.76-6.52C301.11,338.08,300.84,337.37,299.54,336.91Z"/><path class="cls-9" d="M362.23,205.34l-4,4.48,1.91-9.41C361,202.36,361.6,203.85,362.23,205.34Z"/><path class="cls-4" d="M204,137.74c0,12.52-10,24.47-23.76,24.28s-22.85-11.41-22.93-24.45a23.35,23.35,0,1,1,46.69.17Zm-23.25-22.29a22.26,22.26,0,0,0-.17,44.51,22.26,22.26,0,1,0,.17-44.51Z"/><path class="cls-4" d="M218.47,199.35c-2.21-8.45-1-16.2,4.88-22.89a23.26,23.26,0,0,1,30.25-4.07,23.62,23.62,0,0,1,8.6,29.18l-.81,1.87c-.41.52-.84,1-1.21,1.58a23.37,23.37,0,0,1-31.78,6.73c-3.41-2.11-5.81-5.15-8.17-8.26L218.71,200Zm44.59-7.47a22.28,22.28,0,1,0-22.31,22.31A22.34,22.34,0,0,0,263.06,191.88Z"/><path class="cls-4" d="M161.29,257.88c-4.28-8.69-4-17.2,1.51-25.19a23.16,23.16,0,0,1,28.63-7.76,23.53,23.53,0,0,1,13.11,26.86c-.12.51-.21,1-.32,1.55-.08.2-.16.4-.23.59-.35.9-.7,1.8-1,2.69-.38.54-.79,1.06-1.13,1.62A23.36,23.36,0,0,1,169.3,266C166,263.92,163.59,260.94,161.29,257.88ZM204,246.25a22.27,22.27,0,1,0-22.37,22.2A22.2,22.2,0,0,0,204,246.25Z"/><path class="cls-7" d="M161.29,257.88c2.3,3.06,4.68,6,8,8.1a23.36,23.36,0,0,0,32.52-7.74c.34-.56.75-1.08,1.13-1.62.54,1.76-.75,2.95-1.5,4.16-8.75,14.21-29.73,14.5-38.86.59C161.9,260.32,161,259.31,161.29,257.88Z"/><path class="cls-7" d="M220.23,203.49c2.36,3.11,4.76,6.15,8.17,8.26A23.37,23.37,0,0,0,260.18,205c.37-.55.8-1.06,1.21-1.58.22,2.22-1.39,3.61-2.54,5.1-9.56,12.28-29,11.35-37.39-1.75C220.82,205.8,220,204.83,220.23,203.49Z"/><path class="cls-7" d="M218.47,199.35l.24.6Z"/><path class="cls-7" d="M204,253.93c.07-.19.15-.39.23-.59C204.14,253.54,204.06,253.74,204,253.93Z"/><path class="cls-9" d="M180.76,115.45a22.26,22.26,0,1,1-22.31,22A22.21,22.21,0,0,1,180.76,115.45ZM195.25,138c0-2,0-3.93,0-5.89a8.14,8.14,0,0,0-8.09-8.31q-6-.14-12,0a8.08,8.08,0,0,0-8,8.11c-.06,4-.07,8,0,12a8,8,0,0,0,8.08,8q6,.12,12,0a8,8,0,0,0,8.06-8.07C195.29,141.87,195.25,139.91,195.25,138Z"/><path class="cls-9" d="M204,246.25A22.27,22.27,0,1,1,181.92,224,22.15,22.15,0,0,1,204,246.25Zm-19.79,9.58c0,1.06,0,2.12,0,3.18,0,2.49.14,2.57,2.58,1.73a15.18,15.18,0,1,0-9.31.27c1.58.43,2,0,1.92-1.56a49.83,49.83,0,0,1,0-6.35c.13-1.82-.32-2.7-2.3-2.39s-1.51-1.15-1.52-2.2-.32-2.51,1.56-2.22c2.06.33,2.28-.71,2.26-2.44-.06-5,2-6.93,6.84-6.76,1.09,0,2.32-.24,2.3,1.62,0,1.54-.07,2.53-2.11,2.47-2.47-.07-2.15,1.95-2.25,3.62-.11,2,1.3,1.32,2.31,1.5.66.11,2.12-.51,1.68.91-.37,1.2.82,3.53-1.7,3.45-2-.06-2.53.64-2.29,2.45A22.44,22.44,0,0,1,184.22,255.83Z"/><path class="cls-2" d="M195.25,138c0,2,0,3.92,0,5.88a8,8,0,0,1-8.06,8.07q-6,.12-12,0a8,8,0,0,1-8.08-8c-.08-4-.07-8,0-12a8.08,8.08,0,0,1,8-8.11q6-.15,12,0a8.14,8.14,0,0,1,8.09,8.31C195.28,134,195.25,136,195.25,138Zm-14.19,11.63c1.81,0,3.62,0,5.43,0,4-.06,6.37-2.35,6.43-6.3q.09-5.43,0-10.86c0-3.7-2.34-6.18-6-6.31-3.84-.14-7.69-.13-11.53,0a5.86,5.86,0,0,0-6,5.88c-.1,3.92-.11,7.84,0,11.76a5.78,5.78,0,0,0,6,5.82C177.28,149.62,179.17,149.58,181.06,149.58Z"/><path class="cls-2" d="M184.22,255.83a22.44,22.44,0,0,0,0-2.72c-.24-1.81.31-2.51,2.29-2.45,2.52.08,1.33-2.25,1.7-3.45.44-1.42-1-.8-1.68-.91-1-.18-2.42.47-2.31-1.5.1-1.67-.22-3.69,2.25-3.62,2,.06,2.09-.93,2.11-2.47,0-1.86-1.21-1.58-2.3-1.62-4.88-.17-6.9,1.74-6.84,6.76,0,1.73-.2,2.77-2.26,2.44-1.88-.29-1.58,1.12-1.56,2.22s-.4,2.5,1.52,2.2,2.43.57,2.3,2.39a49.83,49.83,0,0,0,0,6.35c.07,1.53-.34,2-1.92,1.56a15.34,15.34,0,1,1,9.31-.27c-2.44.84-2.57.76-2.58-1.73C184.21,258,184.22,256.89,184.22,255.83Z"/><path class="cls-9" d="M181.06,149.58c-1.89,0-3.78,0-5.66,0a5.78,5.78,0,0,1-6-5.82c-.11-3.92-.1-7.84,0-11.76a5.86,5.86,0,0,1,6-5.88c3.84-.13,7.69-.14,11.53,0,3.66.13,6,2.61,6,6.31s.06,7.24,0,10.86c-.06,3.95-2.45,6.24-6.43,6.3C184.68,149.6,182.87,149.58,181.06,149.58Zm0-18.71a7.12,7.12,0,0,0-7,7.09,7.11,7.11,0,0,0,14.22-.19A7.11,7.11,0,0,0,181.07,130.87Zm9.53-.64c-.19-1-.73-1.75-1.78-1.73a1.6,1.6,0,0,0-1.72,1.71,1.58,1.58,0,0,0,1.71,1.69C189.91,131.91,190.4,131.21,190.6,130.23Z"/><path class="cls-9" d="M255.24,185.06a1.51,1.51,0,0,1-.28.22s-.1-.07-.15-.11l.3-.23Z"/><path class="cls-2" d="M181.07,130.87a7.11,7.11,0,0,1,7.2,6.9,7.11,7.11,0,0,1-14.22.19A7.12,7.12,0,0,1,181.07,130.87Zm4.7,6.87a4.61,4.61,0,0,0-9.21.1,4.61,4.61,0,1,0,9.21-.1Z"/><path class="cls-2" d="M190.6,130.23c-.2,1-.69,1.68-1.79,1.67a1.58,1.58,0,0,1-1.71-1.69,1.6,1.6,0,0,1,1.72-1.71C189.87,128.48,190.41,129.22,190.6,130.23Z"/><path class="cls-9" d="M185.77,137.74a4.61,4.61,0,1,1-9.21.1,4.61,4.61,0,0,1,9.21-.1Z"/></svg>