<svg id="Capa_1" data-name="Capa 1" xmlns="http://www.w3.org/2000/svg" viewBox="0 0 518.05 397.36"><defs><style>.cls-1{fill:#414144;}.cls-2{fill:#f2f2f2;}.cls-3{fill:#313043;}.cls-4{fill:#e4eccd;}.cls-5{fill:#eddaa6;}.cls-6{fill:#403e57;}.cls-7{fill:#b5136a;}.cls-8{fill:#fff;}.cls-9{fill:#e9ad65;}.cls-10{fill:#a7c157;}</style></defs><path class="cls-1" d="M55.17,311.73a4.13,4.13,0,0,0-.37-5.29c-3-3.7-4.11-7.94-3.83-12.82.84-14.69,1.29-29.4,2.06-44.1.25-5-.84-9.71-1.41-14.53-1.49-12.4-3.08-24.78-3.07-37.29a46.11,46.11,0,0,1,.56-6.64,4.06,4.06,0,0,1,3.41,1.23,18.54,18.54,0,0,0,5,3.35,101.68,101.68,0,0,0,20.89,7.09c4,.88,8.09,1.46,12.12,0,2.59-.94,3.21-2.16,2.6-4.83s-1.22-5.27-1.79-7.92c-.12-.57-.42-1.31.26-1.7s1,.24,1.46.55c2.48,1.78,4.94,3.61,7.45,5.36,1.32.92,2.76,1.33,4.21.18a128.62,128.62,0,0,1,7,25c1.08,5.68,2.18,11.36,1.68,17.19-.11,1.34.16,1.76,1.69,1.51,13.47-2.27,27-4.43,40.44-6.62q25-4.06,49.93-8.13,26.52-4.31,53-8.64,25.07-4.08,50.14-8.13,23.73-3.87,47.45-7.76,25.08-4.1,50.15-8.15l36.93-6c4.54-.75,4.54-.77,4.54,3.74V299.16c0,1.12,0,2.23-.06,3.35-2.26-9.16-8.16-15.11-16.52-19-1.69-.77-2.27-.65-2.33,1.34a38.21,38.21,0,0,0,1,11.82c-.83.42-1.63,0-2.42-.17a43.45,43.45,0,0,0-10-.22c-1.09.06-1.7.37-1.08,1.65,3.54,7.17,8.31,13,16.24,15.63a2.92,2.92,0,0,1,1.63.86c-1.12,0-2.23.05-3.35.05H102.37l-.24-6.1a5.87,5.87,0,0,0,.1-.83q0-16.8,0-33.6a8.6,8.6,0,0,0-.24-1.42.34.34,0,0,0,.15-.18l.14-.2-.13.21a.4.4,0,0,0-.18.16c-2.36,5.94-4.62,11.91-6.7,18a20.25,20.25,0,0,0-.55,9.59c.46,3.08,2.35,6,4,8.84a20,20,0,0,0,3.25,5.9c.28.63.62,1.25.85,1.9.32,1,1.08,2,.3,2.95s-1.94.32-2.92.06a21.14,21.14,0,0,1-2.17-.71c-5.62-2.15-10.28-5.72-14.57-9.84-.46-.53-.89-1.08-1.36-1.59a91.18,91.18,0,0,1-9-11c-.76-1.15-.7-1.83.65-2.33.55-.2,1.43-.22,1.46-1,.09-2.84,2.25-4.37,3.87-6.21a6.75,6.75,0,0,0,1.51-2.44c4.23-13.32,8.45-26.65,12.75-40a3.5,3.5,0,0,0-.33-2.94c-4.14-8-8.24-16.11-12.37-24.15-.29-.56-.39-1.3-1.1-1.63-.08.24-.17.43-.22.63-2.33,9.39-4.71,18.77-7,28.17-1.09,4.6-2.81,9.08-3,13.84-.47,9.89-.8,19.8-1.19,29.69-.25,6.35-.58,12.69-.73,19,0,1.15-1.7,1.92-.6,3.2-.06,2.29,1.19,4.27,1.55,6.45.52,3.12-.93,4.74-4,4.33s-6.3-1.08-9.47-1.48c-1.25-.15-1.25-.8-1.45-1.77C53,315.6,54.75,313.87,55.17,311.73Zm299.6-18.89c.72.22.78.88,1,1.45,3.35,8.08,11.66,11.75,19.72,8.5,4.48-1.81,7.64-5,8.5-10,1.62.31,2.27-.31,2.09-2a19.85,19.85,0,0,1,0-3.93c.15-1.52-.6-1.79-1.84-1.62-2.69-10.7-15.7-14.73-24.26-7.61-2.44,2-3.65,4.83-4.9,7.61-1.44-.26-2,.29-1.9,1.8s.05,3.05,0,4.58C353.19,292.75,353.7,293.12,354.77,292.84Zm17.35-45.09H348.67c-7.6,0-15.21,0-22.81,0-.63,0-1.43-.39-1.85.49a2.31,2.31,0,0,0,2.17,3.52h93.36c.34,0,.82,0,.85-.39a9.82,9.82,0,0,0,0-3.11c-.25-1-1.32-.49-2-.49Q395.25,247.74,372.12,247.75Zm0,8.66H355.78c-10,0-19.94,0-29.92,0-.62,0-1.57-.55-1.87.67-.58,2.29,0,3.15,2.35,3.15h93.32a.73.73,0,0,0,.8-.47c.77-1.81-.19-3.36-2.12-3.36Zm-31.8,12.48c4.88,0,9.75-.09,14.62,0,1.8.05,1.81-.81,1.83-2.14s-.21-2-1.8-2q-14.61.11-29.23,0c-1.55,0-1.88.52-1.81,1.92s-.09,2.22,1.78,2.17C330.56,268.8,335.43,268.89,340.3,268.89Zm-72.5,38.18a3.74,3.74,0,0,0-3.92-3.72,3.78,3.78,0,0,0-3.66,3.79,3.79,3.79,0,0,0,7.58-.07Zm18.07,4.61a3.87,3.87,0,0,0,3.93-3.55,3.77,3.77,0,0,0-7.53-.53A3.86,3.86,0,0,0,285.87,311.68Zm-7-4.23a3.8,3.8,0,0,0-3.95-3.71,3.66,3.66,0,0,0-3.61,3.79,3.8,3.8,0,0,0,3.69,3.76A3.9,3.9,0,0,0,278.84,307.45Z"/><path class="cls-2" d="M102.37,314.49H430.92c1.12,0,2.23,0,3.34-.05,4.14.39,8.27.93,12.45.28,1.16-.18,1.47-.4.93-1.5-3.53-7.22-8.29-13.16-16.29-15.77a9.56,9.56,0,0,1-1.45-.76,38.21,38.21,0,0,1-1-11.82c.06-2,.64-2.11,2.33-1.34,8.36,3.87,14.26,9.82,16.52,19,.94,1.84.38,3.81.39,5.71,0,1.73.6,2.22,2.32,2.31,5.32.3,10.62.92,15.91,1.57a127.59,127.59,0,0,1,17.81,3,22.33,22.33,0,0,1,2.94,1c.77.32,1.67.72,1.62,1.7s-1,1.42-1.87,1.75a45.24,45.24,0,0,1-8.66,2.19c-6.69,1.18-13.43,2-20.19,2.57s-13.66,1.23-20.51,1.69S424,327,417.3,327.29q-8.64.42-17.27.84c-7,.36-14,.56-21,.84-9.52.39-19.06.48-28.58.89-6.34.28-12.69-.09-19,.36-10.25.72-20.5,0-30.73.39-26.58.89-53.16.4-79.74.26-10.09-.06-20.22.2-30.3-.37-6.63-.38-13.26.11-19.84-.41-5.09-.41-10.17-.07-15.24-.37-8.2-.48-16.4-.6-24.6-.87-6.39-.21-12.78-.57-19.16-.84-5.27-.23-10.54-.56-15.81-.82q-12.17-.6-24.29-1.67c-8.14-.7-16.27-1.52-24.38-2.53a77,77,0,0,1-15.65-3.26c-1-.35-2.2-.64-2.3-1.84s1.19-1.63,2.12-2c4-1.58,8.31-2.17,12.55-2.86,3.69-.59,7.42-.88,11.14-1.31-.42,2.14-2.2,3.87-1.71,6.31.2,1,.2,1.62,1.45,1.77,3.17.4,6.3,1.07,9.47,1.48s4.56-1.21,4-4.33c-.36-2.18-1.61-4.16-1.55-6.45l16.61-1.33c4.29,4.12,9,7.69,14.57,9.84a21.14,21.14,0,0,0,2.17.71c1,.26,2.11.91,2.92-.06s0-2-.3-2.95c-.23-.65-.57-1.27-.85-1.9Z"/><path class="cls-3" d="M104.73,194.36c-1.45,1.15-2.89.74-4.21-.18-2.51-1.75-5-3.58-7.45-5.36-.44-.31-.88-.89-1.46-.55s-.38,1.13-.26,1.7c.57,2.65,1.19,5.28,1.79,7.92s0,3.89-2.6,4.83c-4,1.47-8.12.89-12.12,0a101.68,101.68,0,0,1-20.89-7.09,18.54,18.54,0,0,1-5-3.35,4.06,4.06,0,0,0-3.41-1.23c-1.81-3-1.12-6.19-.51-9.32a2.2,2.2,0,0,0-.73-2.35c-3.79-3.49-7.47-7.11-11.3-10.55-2.09-1.88-2.77-4.26-3.13-6.85-.65-4.72-.4-9.46-.42-14.19,0-6.07-.19-12.13,0-18.19.17-4.42,1.47-8.53,5.6-11.08.65-.4.78-1.12,1-1.75,1.7-4.27,3.36-8.55,5.1-12.79a12.42,12.42,0,0,1,6.12-6.86c1.46-.69,3-1.23,4.57-.29a10.57,10.57,0,0,0-.29,6.69c-.21,2.46,1,4.35,2.4,6.23,8.37,11.2,17.36,22,23,35,.06.13.28.19.54.34,0-3,1.26-5.73.5-8.58-2.83-10.61-5.15-21.39-10.32-31.22,2.54,0,4.78-1.33,7.27-1.57,4.3,3.51,4.31,8.64,5.07,13.48q1.36,8.77,2.64,17.55a2.79,2.79,0,0,0,2.19,2.51c6.66,2.53,13.61,2.59,20.57,2.79.82,0,1.89-.4,2.32.82l.9,8c-.42,1.32,1.15,3-.18,3.88-1,.63-2.57.29-3.89.39L91.11,154.4c1.25,2.35,2.43,4.53,3.56,6.73a34.46,34.46,0,0,1,3.67,9.93c.93,5.23,3.29,10,5.24,15C104.65,188.7,105.42,191.43,104.73,194.36Zm-30-6.81,1.44-.19c1.72-.23,3.51-.64,3.85-2.59s-1.55-2.38-2.82-3.14a5.7,5.7,0,0,0-.76-.34c-4-1.72-4-1.72-4.83,2.57l0,.21C70.84,187.55,70.86,187.57,74.71,187.55Zm-25.6-32.07c-1.19,2.56.1,3.85,2,5.32A19.19,19.19,0,0,0,49.11,155.48Z"/><path class="cls-2" d="M274.82,77.19H105c-2.86,0-2.86,0-2.86-2.78,0-1.88.14-3.78,0-5.65-.2-2.09.64-2.78,2.59-2.46a4.39,4.39,0,0,0,.63,0q169.61,0,339.23,0c3.54,0,3.14-.4,3.16,3.09,0,1.82-.14,3.65,0,5.44.21,2-.65,2.62-2.49,2.36a11.84,11.84,0,0,0-1.46,0ZM111.6,68.82a2.69,2.69,0,0,0-2.84,2.68,2.83,2.83,0,0,0,2.79,3,2.91,2.91,0,0,0,2.76-2.85A2.74,2.74,0,0,0,111.6,68.82Zm15.63,2.76a2.78,2.78,0,1,0,5.56,0,2.78,2.78,0,0,0-5.56,0Zm-3.68.06a2.78,2.78,0,0,0-5.56-.11,2.78,2.78,0,1,0,5.56.11Z"/><path class="cls-4" d="M388.26,132.12c.37,11.86-9.9,22.83-22.69,22.56s-22.42-10-22.44-22.5a22.46,22.46,0,0,1,22.7-22.69C379,109.52,388.64,120.54,388.26,132.12Zm-12.06-.05a10.39,10.39,0,0,0-10.42-10.52A10.84,10.84,0,0,0,355.15,132a10.67,10.67,0,0,0,10.68,10.56A10.32,10.32,0,0,0,376.2,132.07Z"/><path class="cls-4" d="M198.07,188.19a22.58,22.58,0,1,1-21.8-22.66C187.57,165.71,198.36,175.6,198.07,188.19Zm-7.95-3.78a5.19,5.19,0,0,0-1-.09c-2.3.3-3.78-.43-5.25-2.51-3.94-5.58-12.67-5.72-16.47-.21-1.53,2.22-3,3.08-5.51,2.73a4.52,4.52,0,0,0-1,.08c-1.29-.18-1.88.25-1.74,1.67a24,24,0,0,1,0,4.15c-.12,1.34.44,1.74,1.65,1.58a9.31,9.31,0,0,0,1.65.16,4.58,4.58,0,0,1,4.75,2.25c3.81,5.55,11.74,6.21,15.82,1.14,2.12-2.62,4.14-3.86,7.32-3.49a.46.46,0,0,0,.2-.05c1.06.09,1.26-.5,1.23-1.41a38.87,38.87,0,0,1,0-4.58C191.82,184.51,191.15,184.32,190.12,184.41Z"/><path class="cls-1" d="M56.49,91.86a20.66,20.66,0,0,1-1.8-12C56,72,61,67.29,69.06,66.75A22.29,22.29,0,0,1,80.9,69.38c1.55.78,3.17,2.33,5.4,1.89.23,0,2.7.76,2.42,2.69a17.59,17.59,0,0,0,0,2.3c-.09,4.24-1,5.54-5,6.85-1-.11-2.08-.19-3.11-.32-2.17-.27-2.61,0-2.68,2.3a7.33,7.33,0,0,1-2.13,5.06c-2.72,2.79-5.48,2.84-8.22.12a2.14,2.14,0,0,0-3.16-.16A15.84,15.84,0,0,0,62.51,92c-2.14,2.36-3.12,2.44-5.62.44a.2.2,0,0,0-.14-.24C56.66,92.11,56.57,92,56.49,91.86Z"/><path class="cls-5" d="M56.89,92.48c2.5,2,3.48,1.92,5.62-.44a15.84,15.84,0,0,1,1.91-1.93,2.14,2.14,0,0,1,3.16.16c2.74,2.72,5.5,2.67,8.22-.12a7.33,7.33,0,0,0,2.13-5.06c.07-2.25.51-2.57,2.68-2.3,1,.13,2.07.21,3.11.32a14.57,14.57,0,0,1-4.18,19.5,4.7,4.7,0,0,0-.92,1.09c-2.49.24-4.73,1.61-7.27,1.57-.4,0-.84-.14-1,.4-1.06,2.92-1.58,3.18-4.6,2.24a70,70,0,0,1-10.51-4.38,10.57,10.57,0,0,1,.29-6.69C57.52,95.89,56.7,94,56.89,92.48Z"/><path class="cls-6" d="M175.56,139.84c15.35,0,30.71,0,46.06,0,1.61,0,2.12.38,2.11,2s-.48,1.93-2,1.93q-46.28-.08-92.55,0c-1.54,0-2-.34-2-1.93s.51-2,2.11-2C144.71,139.86,160.13,139.84,175.56,139.84Z"/><path class="cls-6" d="M175.44,148.39q23,0,46.06,0c1.37,0,2.31-.07,2.24,1.88-.06,1.68-.53,2-2.12,2q-46.16-.08-92.33,0a2.26,2.26,0,0,1-2-3.42c.43-.8,1.25-.4,1.88-.4Q152.3,148.38,175.44,148.39Z"/><path class="cls-6" d="M143.4,160.86c-4.88,0-9.75-.09-14.62,0-1.92.05-1.49-1.09-1.55-2.14s0-1.91,1.58-1.9q14.73.13,29.45,0c1.73,0,1.66.83,1.68,2s-.05,2-1.72,2C153.28,160.79,148.34,160.86,143.4,160.86Z"/><path class="cls-5" d="M112.31,148.82l-.9-8c2.59-.69,5-1.87,7.84-1.71,2.44.15,3.16,1.28,2.12,3.53a6.66,6.66,0,0,1-2.42,2.78A34.25,34.25,0,0,1,112.31,148.82Z"/><path class="cls-2" d="M56.49,91.86c.08.13.17.25.26.38C56.66,92.11,56.57,92,56.49,91.86Z"/><path class="cls-7" d="M384,292.77c-.86,5-4,8.21-8.5,10-8.06,3.25-16.37-.42-19.72-8.5-.24-.57-.3-1.23-1-1.45,1.14-.76,2.41-.26,3.62-.35.9-.07,1.46-.13,1.12-1.31a7.73,7.73,0,0,1,0-4.29c.32-1.09.05-1.54-1.13-1.51s-2.2-.09-3.3-.15c1.25-2.78,2.46-5.57,4.9-7.61,8.56-7.12,21.57-3.09,24.26,7.61a2.08,2.08,0,0,1-.41.11c-1.17.05-2.63-.33-3.46.23-1.18.8.06,2.26,0,3.46s-1.26,2.68-.08,3.46C381.24,293.08,382.76,292.71,384,292.77Z"/><path class="cls-2" d="M372.12,247.75q23.13,0,46.26,0c.68,0,1.75-.47,2,.49a9.82,9.82,0,0,1,0,3.11c0,.39-.51.39-.85.39H326.18a2.31,2.31,0,0,1-2.17-3.52c.42-.88,1.22-.48,1.85-.49,7.6,0,15.21,0,22.81,0Z"/><path class="cls-8" d="M372.1,256.41h46.24c1.93,0,2.89,1.55,2.12,3.36a.73.73,0,0,1-.8.47H326.34c-2.31,0-2.93-.86-2.35-3.15.3-1.22,1.25-.66,1.87-.67,10,0,19.95,0,29.92,0Z"/><path class="cls-9" d="M429.9,296.69a9.56,9.56,0,0,0,1.45.76c8,2.61,12.76,8.55,16.29,15.77.54,1.1.23,1.32-.93,1.5-4.18.65-8.31.11-12.45-.28a2.86,2.86,0,0,0-1.62-.86c-7.93-2.6-12.7-8.46-16.24-15.63-.62-1.28,0-1.59,1.08-1.65a43.45,43.45,0,0,1,10,.22C428.27,296.66,429.07,297.11,429.9,296.69Z"/><path class="cls-2" d="M340.3,268.89c-4.87,0-9.74-.09-14.61,0-1.87.05-1.72-.92-1.78-2.17s.26-1.93,1.81-1.92q14.61.11,29.23,0c1.59,0,1.82.59,1.8,2s0,2.19-1.83,2.14C350.05,268.8,345.18,268.89,340.3,268.89Z"/><path class="cls-2" d="M267.8,307.07a3.79,3.79,0,1,1-3.92-3.72A3.74,3.74,0,0,1,267.8,307.07Z"/><path class="cls-2" d="M285.87,311.68a3.86,3.86,0,0,1-3.6-4.08,3.77,3.77,0,0,1,7.53.53A3.87,3.87,0,0,1,285.87,311.68Z"/><path class="cls-4" d="M384,292.77c-1.25-.06-2.77.31-3.67-.28-1.18-.78.05-2.27.08-3.46s-1.21-2.66,0-3.46c.83-.56,2.29-.18,3.46-.23a2.08,2.08,0,0,0,.41-.11c1.24-.17,2,.1,1.84,1.62a19.85,19.85,0,0,0,0,3.93C386.28,292.46,385.63,293.08,384,292.77Z"/><path class="cls-4" d="M355.1,285.23c1.1.06,2.2.18,3.3.15s1.45.42,1.13,1.51a7.73,7.73,0,0,0,0,4.29c.34,1.18-.22,1.24-1.12,1.31-1.21.09-2.48-.41-3.62.35-1.07.28-1.58-.09-1.55-1.23,0-1.53.1-3.06,0-4.58S353.66,285,355.1,285.23Z"/><path class="cls-2" d="M278.84,307.45a3.9,3.9,0,0,1-3.87,3.84,3.8,3.8,0,0,1-3.69-3.76,3.66,3.66,0,0,1,3.61-3.79A3.8,3.8,0,0,1,278.84,307.45Zm-3.77,3a3,3,0,0,0,3-3.06,3,3,0,0,0-2.9-2.91,2.87,2.87,0,0,0-3.07,2.92A2.93,2.93,0,0,0,275.07,310.49Z"/><path class="cls-2" d="M98.74,308.92c1-1,2.27-.33,3.39-.53l.24,6.1-.38.33A20,20,0,0,1,98.74,308.92Z"/><path class="cls-10" d="M102.15,272.37l.13-.21-.14.2Z"/><path class="cls-10" d="M102,272.54h0a.4.4,0,0,1,.18-.16h0A.34.34,0,0,1,102,272.54Z"/><path class="cls-10" d="M55.2,103.53a70,70,0,0,0,10.51,4.38c3,.94,3.54.68,4.6-2.24.2-.54.64-.41,1-.4,5.17,9.83,7.49,20.61,10.32,31.22.76,2.85-.51,5.62-.5,8.58-.26-.15-.48-.21-.54-.34-5.67-13-14.66-23.77-23-35C56.2,107.88,55,106,55.2,103.53Z"/><path class="cls-5" d="M74.71,187.55c-3.85,0-3.87,0-3.15-3.48l0-.21c.81-4.29.81-4.29,4.83-2.57a5.7,5.7,0,0,1,.76.34c1.27.76,3.15,1.22,2.82,3.14s-2.13,2.36-3.85,2.59Z"/><path class="cls-10" d="M111.6,68.82a2.74,2.74,0,0,1,2.71,2.85,2.91,2.91,0,0,1-2.76,2.85,2.83,2.83,0,0,1-2.79-3A2.69,2.69,0,0,1,111.6,68.82Z"/><path class="cls-10" d="M127.23,71.58a2.78,2.78,0,0,1,5.56,0,2.78,2.78,0,1,1-5.56,0Z"/><path class="cls-10" d="M123.55,71.64a2.78,2.78,0,1,1-5.56-.11,2.78,2.78,0,0,1,5.56.11Z"/><path class="cls-7" d="M376.2,132.07a10.32,10.32,0,0,1-10.37,10.52A10.67,10.67,0,0,1,355.15,132a10.84,10.84,0,0,1,10.63-10.48A10.39,10.39,0,0,1,376.2,132.07Z"/><path class="cls-10" d="M160.83,184.41a4.52,4.52,0,0,1,1-.08c2.48.35,4-.51,5.51-2.73,3.8-5.51,12.53-5.37,16.47.21,1.47,2.08,2.95,2.81,5.25,2.51a5.19,5.19,0,0,1,1,.09c.11,1.42.13,2.85.35,4.25.16,1.07-.69,2.12,0,3.16a.46.46,0,0,1-.2.05c-3.18-.37-5.2.87-7.32,3.49-4.08,5.07-12,4.41-15.82-1.14a4.58,4.58,0,0,0-4.75-2.25,9.31,9.31,0,0,1-1.65-.16A35.21,35.21,0,0,1,160.83,184.41Z"/><path class="cls-6" d="M160.83,184.41a35.21,35.21,0,0,0-.09,7.4c-1.21.16-1.77-.24-1.65-1.58a24,24,0,0,0,0-4.15C159,184.66,159.54,184.23,160.83,184.41Z"/><path class="cls-6" d="M190.48,191.82c-.7-1,.15-2.09,0-3.16-.22-1.4-.24-2.83-.35-4.25,1-.09,1.7.1,1.6,1.42a38.87,38.87,0,0,0,0,4.58C191.74,191.32,191.54,191.91,190.48,191.82Z"/><path class="cls-6" d="M275.07,310.49a2.93,2.93,0,0,1-3-3.05,2.87,2.87,0,0,1,3.07-2.92,3,3,0,0,1,2.9,2.91A3,3,0,0,1,275.07,310.49Z"/></svg>