<svg id="Capa_1" data-name="Capa 1" xmlns="http://www.w3.org/2000/svg" viewBox="0 0 440.15 397.36"><defs><style>.cls-1{fill:#a7c256;}.cls-2{fill:#f1f1f1;}.cls-3{fill:#413f57;}.cls-4{fill:#302f42;}.cls-5{fill:#b5136a;}.cls-6{fill:#e9ad65;}.cls-7{fill:#a7c156;}.cls-8{fill:#fff;}.cls-9{fill:#eddaa6;}</style></defs><path class="cls-1" d="M79.28,136.66a7.4,7.4,0,0,1,2.4.74c3,2.31,6,4.61,8.84,7.16,1.94,1.76,1.46,3.1-.89,4.34-2.62,1.37-4.87,1.26-7.07-.89s-4.64-4.3-7.07-6.33-1.13-3.46.94-4.29A20.75,20.75,0,0,1,79.28,136.66Z"/><path class="cls-1" d="M94.22,281.18c-.29.34-.71,1.24-1.38,1.5-3.94,1.57-7.9,3.09-11.93,4.4-1.89.61-4.8-1.76-4.73-3.72,0-.56.89-1.34,1.53-1.57,3.9-1.45,7.88-2.66,11.76-4.15C92.21,276.59,94.25,277.79,94.22,281.18Z"/><path class="cls-1" d="M46.93,209.48c3.09.06,3.56.48,2.86,3.5a52.56,52.56,0,0,1-2.41,7.38,4.12,4.12,0,0,1-2,2.19,6.63,6.63,0,0,1-4.18.51c-.63-.21-1-2.31-.85-3.5a38.68,38.68,0,0,1,1.33-6.71C42.35,210.41,44.05,209.43,46.93,209.48Z"/><path class="cls-1" d="M32.23,149.17a13.85,13.85,0,0,1,.07-3.76A6.31,6.31,0,0,1,34.38,142c2.51-1.66,4-.76,3.95,2.22-.06,3.54-.27,7.08-.47,10.61a2.91,2.91,0,0,1-2.94,3.08c-2,.09-2.23-1.36-2.34-2.87q-.21-2.94-.43-5.88Z"/><path class="cls-2" d="M76.9,302.3c-2.73-4.88-4-9.86-1.81-15.4a15.45,15.45,0,0,1,13.79-9.73h16.5c4.31,0,4.56-.28,4.56-4.42q0-110.35-.06-220.72a5.29,5.29,0,0,1,2.84-5.16,177.07,177.07,0,0,1,33.9-16.78c2.22-.8,2.75-.36,2.9,2.05.6,9.53,1.51,19,2.24,28.58.15,2,0,3.93.09,5.89s.91,3.15,3.3,3c4.22-.2,8.46-.2,12.67,0,2.48.13,2.91-.88,2.9-3.07-.08-13.55-.05-27.11,0-40.67,0-.86-.37-2,.4-2.5a3.74,3.74,0,0,1,2.51-.48c1.11.18.59,1.28.59,1.95q0,20.47,0,41c0,3.76,0,3.76,3.88,3.76h37.36c7.66,0,15.33-.11,23,.07,2.92.07,3.66-1,3.64-3.75-.12-13-.07-25.94,0-38.9,0-1.13-.61-2.8,1.54-2.79s2,1.48,2,2.9c0,13.07.07,26.14,0,39.2,0,2.54.56,3.49,3.25,3.34,4.11-.23,8.25-.1,12.37,0,1.45,0,2.06-.42,2.16-2,.51-8.38,1-16.76,1.81-25.11.27-2.93.48-5.84.54-8.78,0-1.9.92-2.59,2.85-1.83,12.94,5.07,24.83,12,36.22,19.92,1.62,1.12,1.61,2.73,1.61,4.45q0,37.58,0,75.16c-10.4,1.64-17.08,7.54-20.16,17.58l-28.8-.24c.59-7.59,1.11-15.18,1.81-22.75.26-2.79-.79-3.41-3.44-3.4-32.12.09-64.24,0-96.36.06h-1.76c-1.27,0-1.51.45-1.42,1.81.5,8.09,1.54,16.15,1.52,24.27-9.61.52-19.23.1-28.85.22-5.54.07-7.13,1.64-7.13,7.24V262.33c0,6.09,1.54,7.59,7.7,7.62l37.12.15a13.45,13.45,0,0,1,.54,3.44c-.31,3,1.18,3.71,3.82,3.66,5.78-.1,11.56,0,17.35,0,0,6.39.08,12.77.1,19.15,0,6,0,5.9-5.91,6-7.65.14-15.32-.47-23,.36l-41.15-.16ZM203.72,78.44c0,3.82-2.09,7.41-5.1,8a25.57,25.57,0,0,1-8.72.66c-4.38-.69-8.81.08-13.14-1-1.82-.44-2.62.39-2.58,2.4.1,6.58.08,13.17,0,19.75,0,1.83.41,2.65,2.45,2.62,7.17-.1,14.34,0,21.52,0a3,3,0,0,0,2.4-.8,9.51,9.51,0,0,1,13.34-.46,4.53,4.53,0,0,0,3.43,1.28c7.37,0,14.75-.09,22.11,0,2.13,0,2.66-.72,2.64-2.72q-.12-16.22,0-32.43c0-2.08-.65-2.69-2.69-2.67-8.75.09-17.49,0-26.24,0-3.74-1.3-7.54-.19-11.82-.69C202.42,74.71,203.91,76.29,203.72,78.44ZM245.57,91.7v16.78c0,1.2-.11,2.42,1.71,2.4,3.82,0,7.65,0,11.48,0,1.12,0,1.63-.57,1.54-1.64-.25-3,.67-6,.69-9,0-3.68.71-7.36,1-11,.32-4.68.47-9.37.73-14,.1-1.61-.73-2-2.15-2-4.22,0-8.44.09-12.65,0-1.85,0-2.36.68-2.34,2.42C245.62,80.91,245.57,86.3,245.57,91.7Zm-84-18.57c-1.28,0-2.56-.06-3.83,0-1.65.09-3.6-.67-4.86.38s.09,2.92.14,4.42c.23,7,.41,14.07,1.26,21,.4,3.3,0,6.63.81,9.9.4,1.55,1,2.06,2.56,2,3.34-.09,6.68-.15,10,0,2.26.11,3.09-.51,3-2.93-.16-6.57-.1-13.15,0-19.72,0-2-.28-3.18-2.76-3.48-3.31-.42-3.78-2.36-1.47-4.8a8.25,8.25,0,0,1,2.44-2.08c1.76-.74,2-2,1.7-3.57-.38-2-2-1.09-3.13-1.17C165.54,73,163.57,73.13,161.61,73.13Zm22.12,0c-2.73,0-5,0-7.31,0a2.3,2.3,0,0,0-2,3.56,3.24,3.24,0,0,0,5.46.62C180.89,76.05,182.08,74.9,183.73,73.13Z"/><path class="cls-3" d="M76.9,302.3l41.44.21,41.15.16c-.33,1.81-.63,3.63-1,5.44-.86,4.1-.17,5,3.92,5q35.57,0,71.13,0c.7,0,1.51.28,2.17-.32-.49-1-1.44-1.09-2.16-1.55l-6.34-4.09c-.82-.53-1.77-1-1.32-2.22,1.35-4.53,3.17-8.92,3.85-13.64l1.23-1.21c3.53-.13,7-.21,10.57-.39,5-.25,10-.38,14.53,2.31a8.88,8.88,0,0,0,8.13.44c1.64.46,3.22-.33,4.91-.12,5.12.62,10.28,1.12,15.43,1.26,1.68,0,4,1.69,5-.2.82-1.46-.48-3.54-.74-5.35-.4-2.85-1.19-5-4.76-3.77,0-4.11-.06-8.23,0-12.35,0-1.21-.06-2-1.67-2-11.28.1-22.55.12-33.83.17H213.86l-9,0H188.37q-10.91-.37-21.82,0L129.43,270c-6.16,0-7.7-1.53-7.7-7.62V156.21c0-5.6,1.59-7.17,7.13-7.24,9.62-.12,19.24.3,28.85-.22.78.07,1.55.21,2.33.21h95c.78,0,1.55-.13,2.33-.2l28.8.24c.34,1.33-.64,2.48-.52,3.79q-78.1,0-156.21,0c-3.11,0-3.77.77-3.77,4.24q0,52.32,0,104.64c0,3.9.52,4.39,4.46,4.39q75.47,0,150.92.07c3,0,3.18-1.07,2.67-3.45-1.19-5.56-2.24-11.15-3.34-16.73-.09-4,.39-7.77,2.94-11a13.32,13.32,0,0,1,6.79-6.24,3.11,3.11,0,0,0,2.07-3.36c-.11-5.89,0-11.79-.05-17.68q0-26.5-.1-53l3.77-.05c0,8.15.06,16.3.06,24.45q0,22.53,0,45.07c0,.87-.52,2.61.63,2.5,3.35-.33,7.22,1.09,9.85-2.33,4.52-3.43,5.58-5.86,4.14-9.46.73-4.76,3.09-8.93,4.65-13.43-.45,4.09.54,7.93,1.57,11.77.42,1.58,1,1.69,2.12.54,1.59-1.71,2.2-3.86,2.82-6,.76-2.68.89-5.62,3-7.75A121.65,121.65,0,0,1,342.59,201c2.92.39,4,1.85,4.46,4.45.62,3.72.27,7.45.33,11.17a6,6,0,0,0,3.18,5.47c5.26,3.23,10.58,6.41,15.32,10.38,8.8,7.38,14.5,16.39,14.33,28.33a11.5,11.5,0,0,0,.14,1.76c.54,4.11,1,4.55,4.94,4.8a3.52,3.52,0,0,1-1.08.36A142,142,0,0,0,364,268.85c-9.7,1.08-19.33,2.49-28.94,4.13a2.4,2.4,0,0,0-2.21,2.27c-3.56,17.5-11.06,33.34-20.22,48.52-1.14,1.88-2.34,2.36-4.42,2.41-12.07.28-24.11-.75-36.17-.62-2.47,0-4.67-.29-6.44-2.12a2.44,2.44,0,0,0-2.68-.69c-1.77.55-3.54,1.12-5.34,1.58a2.91,2.91,0,0,0-2.3,2.33,4.3,4.3,0,0,0-2.09-3.22c-3.77-2.86-7.85-3.76-12.59-3.76-48.73.05-97.47-.11-146.2-.16a5.55,5.55,0,0,1-4.18-1.61,185.69,185.69,0,0,1-13.5-14C76.28,303.38,75,302.66,76.9,302.3Z"/><path class="cls-4" d="M255.3,326.66a2.91,2.91,0,0,1,2.3-2.33c1.8-.46,3.57-1,5.34-1.58a2.44,2.44,0,0,1,2.68.69c1.77,1.83,4,2.15,6.44,2.12,12.06-.13,24.1.9,36.17.62,2.08-.05,3.28-.53,4.42-2.41,9.16-15.18,16.66-31,20.22-48.52a2.4,2.4,0,0,1,2.21-2.27c9.61-1.64,19.24-3.05,28.94-4.13a142,142,0,0,1,20.19-1.11,3.52,3.52,0,0,0,1.08-.36h4.22c1.2.7,2.47.36,3.73.26a26.22,26.22,0,0,1,9.54,1.48A4.22,4.22,0,0,1,406,274c-1.15,17.24-.83,34.55-2.36,51.78-.88,9.79-2.19,19.48-5.42,28.83a6.25,6.25,0,0,1-3.32,3.8q-66.9,33.15-132.83-1.82c-1.71-.9-2.38-2.21-3.05-4-2.91-7.56-3.58-15.41-3.49-23.39,0-.41-.06-.82-.08-1.23Z"/><path class="cls-4" d="M295.79,154.54l-3.77.05c-1.54-.08-3.08-.24-4.62-.2-1.2,0-1.83-.33-1.76-1.6-.12-1.31.86-2.46.52-3.79,3.08-10,9.76-15.94,20.16-17.58a3.12,3.12,0,0,0,3.16-1,11,11,0,0,1,9.19-3.87c3.95.34,7.52-.79,11.25-1.46,3.27-.59,6.62-.72,9.94-1.06H340l2.45,0a4.14,4.14,0,0,1,3.73,2.73,49.06,49.06,0,0,1,2.62,8.1c3.05,10.47,9.71,17.47,20.13,20.84a12.59,12.59,0,0,0,1.7.47c.51.1,1,0,1.11-.64s-.24-.89-.77-1-1.12-.34-1.68-.53q-14-4.59-18.5-18.61c-1.07-3.35-1.65-6.88-3.41-10a1.61,1.61,0,0,1,.15-1.88c2-3.14,3.93-6.31,5.89-9.46l.71-.81v.06c7-4.22,14.35-5.7,22.23-3A24.14,24.14,0,0,1,373,156.81c-1.24.25-2.21.23-2.17,2,.35,15.2-7.6,25.52-19.89,33.07a41.06,41.06,0,0,1-21.75,6.38c-1.63,0-3.37,0-4.44,1.63-2.16,2.13-2.29,5.07-3,7.75-.62,2.16-1.23,4.31-2.82,6-1.07,1.15-1.7,1-2.12-.54-1-3.84-2-7.68-1.57-11.77-1.56,4.5-3.92,8.67-4.65,13.43-.19.63.14,1.53-1.21,2,.52-8.11,3-15.55,3.95-23.23,1.57-8.22,2.65-16.45,1.37-24.84-1.43-9.41-6.63-14.2-15.8-14.44l-1-4.06Z"/><path class="cls-5" d="M215.46,69.58H186.65c-4.57-11.11,2.64-20.36,10.4-22.11,7.26-1.63,13,.76,17.41,6.73a29.84,29.84,0,0,0-2.06,2.85c-1,1.69-1.66,2.1-3.43.59-3.34-2.84-8.73-1.23-10.66,2.78-.8,1.66-.11,2.46,1.33,2.84,1.6.43,3.27.58,4.88,1,4,1,8.17.52,12.09,1.87C216.23,67.25,215.84,68.41,215.46,69.58Z"/><path class="cls-2" d="M216.61,66.09c-3.92-1.35-8.11-.9-12.09-1.87-1.61-.38-3.28-.53-4.88-1-1.44-.38-2.13-1.18-1.33-2.84,1.93-4,7.32-5.62,10.66-2.78,1.77,1.51,2.48,1.1,3.43-.59a29.84,29.84,0,0,1,2.06-2.85,20.15,20.15,0,0,1,13.83-4.65A8.24,8.24,0,1,1,228.36,66C224.45,66.15,220.53,66.08,216.61,66.09Z"/><path class="cls-6" d="M353.42,114.05c-2,3.15-3.9,6.32-5.89,9.46a1.61,1.61,0,0,0-.15,1.88c1.76,3.11,2.34,6.64,3.41,10q4.48,14,18.5,18.61c.56.19,1.12.36,1.68.53s.88.45.77,1-.6.74-1.11.64a12.59,12.59,0,0,1-1.7-.47c-10.42-3.37-17.08-10.37-20.13-20.84a49.06,49.06,0,0,0-2.62-8.1,4.14,4.14,0,0,0-3.73-2.73c1.25-.27,1.09-.79.3-1.47a63.53,63.53,0,0,1-5.26-4.69,10.14,10.14,0,0,1,2.77-15.76c2.72-1.42,3.56-1,4.25,1.86.29,1.22.56,2.43.95,4.16,1.35-2.65,2.61-4.86,4.75-6.33,1.68-1.14,3.49-2.08,5.42-.73s1.11,3.3.68,5.1c-.58,2.41-2.42,4.44-2.19,7.1v-.06C353.46,113.12,353.54,113.67,353.42,114.05Zm-6.93,7.12c-1.26-5.59-2.45-11-3.73-16.44-.41-1.77-1.5-1-2.43-.43a8.11,8.11,0,0,0-1.77,12,75.88,75.88,0,0,0,6.29,5.7c.37.34.81.75,1.24.32S346.39,121.48,346.49,121.17Zm1.77-2.31a50.25,50.25,0,0,0,6.15-13c.36-1,1.15-2.43-.09-3.22s-2.4.16-3.42,1C346.79,107,345.72,112.66,348.26,118.86Z"/><path class="cls-3" d="M393.24,267.64c-1.26.1-2.53.44-3.73-.26A7.07,7.07,0,0,1,393.24,267.64Z"/><path class="cls-7" d="M340,124h0Z"/><path class="cls-3" d="M255.44,328c0,.41.05.82.08,1.23A1.12,1.12,0,0,1,255.44,328Z"/><path class="cls-4" d="M233.54,311.25c.72.46,1.67.56,2.16,1.55-.66.6-1.47.32-2.17.32q-35.57,0-71.13,0c-4.09,0-4.78-.92-3.92-5,.38-1.81.68-3.63,1-5.44,7.64-.83,15.31-.22,23-.36,5.92-.1,5.93,0,5.91-6,0-6.38-.07-12.76-.1-19.15l.11-7.06h16.51a31.23,31.23,0,0,0,.06,3.49,4.42,4.42,0,0,0,4.61,4c2.36-.22,4-1.46,4.25-4,.12-1.16,0-2.33.06-3.49h16.91q.06,3.54.11,7.08a101.28,101.28,0,0,0,.08,12.92l-1.23,1.21c-3.6-1.29-7.4-2-10.84-3.78,1.78-2,3.58-3.9,5.34-5.88,1.11-1.24,1.52-2.62.05-3.84s-2.54-.4-3.55.73l-6.48,7.23c-8.41.2-12.49,4.73-11.49,12.77a38.94,38.94,0,0,1-4.91,5.28l-30.36-.08c-6.66,0-6.66,0-7.92,6.55a7.86,7.86,0,0,0,0,1.1h3.24q17.4,0,34.78,0Q215.56,311.34,233.54,311.25Z"/><path class="cls-8" d="M188.37,270.1l-.11,7.06c-5.79,0-11.57-.06-17.35,0-2.64.05-4.13-.66-3.82-3.66a13.45,13.45,0,0,0-.54-3.44Q177.46,269.73,188.37,270.1Z"/><path class="cls-5" d="M213.14,73.12a15.92,15.92,0,0,1-9.42,5.32c.19-2.15-1.3-3.73-2.4-6C205.6,72.93,209.4,71.82,213.14,73.12Z"/><path class="cls-8" d="M183.73,73.13c-1.65,1.77-2.84,2.92-3.88,4.19a3.24,3.24,0,0,1-5.46-.62,2.3,2.3,0,0,1,2-3.56C178.71,73.09,181,73.13,183.73,73.13Z"/><path class="cls-7" d="M285.64,152.79c-.07,1.27.56,1.62,1.76,1.6,1.54,0,3.08.12,4.62.2q0,26.5.1,53c0,5.89-.06,11.79.05,17.68a3.11,3.11,0,0,1-2.07,3.36,13.32,13.32,0,0,0-6.79,6.24c-1,.33.05-2.29-1.49-1.13s-2.87.34-4.48-.15c0,3.14.06,6,0,8.81-.06,2.16.92,3.29,3,3.5,1.1,5.58,2.15,11.17,3.34,16.73.51,2.38.32,3.46-2.67,3.45Q205.58,266,130.12,266c-3.94,0-4.46-.49-4.46-4.39q0-52.32,0-104.64c0-3.47.66-4.24,3.77-4.24Q207.54,152.75,285.64,152.79Zm-76.87,94.94h51.29c5.1,0,6.78-1.64,6.79-6.62q0-24.32,0-48.64c0-4.8-1.81-6.65-6.54-6.65H157.42c-4.86,0-6.72,1.9-6.72,6.83q0,24,0,48.05c0,5.34,1.7,7,7.07,7Zm75.54-80.43,0-.53H133.22v.53Zm-1.62,51.43V188.8c0-1.8-.72-3.11-2.72-3.1-1.81,0-2.58,1.17-2.58,2.89,0,9.88,0,19.77,0,29.9C279.17,217.67,280.77,217.41,282.69,218.73ZM278,226c0,1.27,0,2.53,0,3.8s.68,2.35,2,2.37,2.08-1,2.1-2.32c0-2.63,0-5.25,0-7.88a1.8,1.8,0,0,0-2.05-1.94c-1.2,0-2.08.49-2.08,1.88Zm-7.66-66.4c.17,2.17,1.2,3.62,3.38,3.7a3.27,3.27,0,0,0,3.61-3.39,3.2,3.2,0,0,0-3.32-3.62C271.73,156.17,270.68,157.55,270.31,159.58Zm-8.58-3.37c-2.31.17-3.54,1.49-3.47,3.62a3.25,3.25,0,0,0,3.6,3.45,3.19,3.19,0,0,0,3.24-3.47C265.12,157.57,263.89,156.41,261.73,156.21Zm-12.31,0a3.34,3.34,0,0,0-3.24,3.52,3.21,3.21,0,0,0,3.38,3.56,3.25,3.25,0,0,0,3.51-3.48C253.09,157.73,251.88,156.39,249.42,156.2Zm-108.93,1.12-.1,1a59.33,59.33,0,0,0,9.52-.08v-.93Zm0,2.61c2.73,1.47,8.21,1.22,9.54-.41A37.73,37.73,0,0,0,140.45,159.93Zm9.39,3,0-.84a44.1,44.1,0,0,0-9.4-.09V163Z"/><path class="cls-2" d="M231,290.09a101.28,101.28,0,0,1-.08-12.92c3.51,0,7,0,10.51,0,8.26-.09,7,1.15,7.13-7.07,11.28,0,22.55-.07,33.83-.17,1.61,0,1.68.79,1.67,2,0,4.12,0,8.24,0,12.35-.87,1.29-2.39,1.22-3.63,1.66-5.51,1.95-11.14,3.58-16.24,6.52a8.88,8.88,0,0,1-8.13-.44c-4.54-2.69-9.52-2.56-14.53-2.31C238,289.88,234.49,290,231,290.09Z"/><path class="cls-2" d="M295.79,154.54l2-4.31,1,4.06a31.61,31.61,0,0,0-1.93,9.41c-.49,9.71,3.07,17.9,9.43,25q0,17.76.05,35.51c-2.63,3.42-6.5,2-9.85,2.33-1.15.11-.62-1.63-.63-2.5q0-22.53,0-45.07C295.85,170.84,295.81,162.69,295.79,154.54Z"/><path class="cls-8" d="M233.54,311.25q-18,.08-35.95.12-17.39,0-34.78,0h-3.24a7.86,7.86,0,0,1,0-1.1c1.26-6.55,1.26-6.56,7.92-6.55l30.36.08c-.58,1.45-.86,2.9.84,3.76,1.51.76,2.52-.18,3.51-1.23s1.53-2.27,3-2.67c1,.45,2,.88,2.91,1.37,2.87,1.5,6.06,1.9,8.69.26,3.19-2,6-1.69,9.12-.36-.45,1.27.5,1.69,1.32,2.22Z"/><path class="cls-9" d="M225.88,304.94c-3.09-1.33-5.93-1.63-9.12.36-2.63,1.64-5.82,1.24-8.69-.26-.95-.49-1.94-.92-2.91-1.37l-2.4-5.14c-1-8,3.08-12.57,11.49-12.77l4.64,1.76c3.44,1.74,7.24,2.49,10.84,3.78C229.05,296,227.23,300.41,225.88,304.94Z"/><path class="cls-4" d="M264.19,292.45c5.1-2.94,10.73-4.57,16.24-6.52,1.24-.44,2.76-.37,3.63-1.66,3.57-1.24,4.36.92,4.76,3.77.26,1.81,1.56,3.89.74,5.35-1.06,1.89-3.35.24-5,.2-5.15-.14-10.31-.64-15.43-1.26C267.41,292.12,265.83,292.91,264.19,292.45Z"/><path class="cls-8" d="M248.52,270.09c-.11,8.22,1.13,7-7.13,7.07-3.5,0-7,0-10.51,0q0-3.54-.11-7.08Z"/><path class="cls-8" d="M213.86,270.08c0,1.16.06,2.33-.06,3.49-.25,2.53-1.89,3.77-4.25,4a4.42,4.42,0,0,1-4.61-4,31.23,31.23,0,0,1-.06-3.49Z"/><path class="cls-4" d="M280.37,245.91c-2.12-.21-3.1-1.34-3-3.5.07-2.83,0-5.67,0-8.81,1.61.49,3,1.26,4.48.15s.45,1.46,1.49,1.13C280.76,238.14,280.28,241.94,280.37,245.91Z"/><path class="cls-9" d="M313.24,193.57c-2.81-.9-4.66-3.17-6.93-4.85-6.36-7.12-9.92-15.31-9.43-25a31.61,31.61,0,0,1,1.93-9.41c9.17.24,14.37,5,15.8,14.44C315.89,177.12,314.81,185.35,313.24,193.57Z"/><path class="cls-8" d="M353.42,114.05c.12-.38,0-.93.71-.81Z"/><path class="cls-8" d="M346.49,121.17c-.1.31-.11.89-.4,1.18s-.87,0-1.24-.32a75.88,75.88,0,0,1-6.29-5.7,8.11,8.11,0,0,1,1.77-12c.93-.61,2-1.34,2.43.43C344,110.14,345.23,115.58,346.49,121.17Z"/><path class="cls-8" d="M348.26,118.86c-2.54-6.2-1.47-11.88,2.64-15.21,1-.82,2.2-1.76,3.42-1s.45,2.18.09,3.22A50.25,50.25,0,0,1,348.26,118.86Z"/><path class="cls-6" d="M218.89,287.52l-4.64-1.76,6.48-7.23c1-1.13,2.16-1.88,3.55-.73s1.06,2.6-.05,3.84C222.47,283.62,220.67,285.56,218.89,287.52Z"/><path class="cls-6" d="M202.76,298.53l2.4,5.14c-1.43.4-2,1.7-3,2.67s-2,2-3.51,1.23c-1.7-.86-1.42-2.31-.84-3.76A38.94,38.94,0,0,0,202.76,298.53Z"/><path class="cls-3" d="M284.31,167.3H133.23v-.53H284.29Z"/><path class="cls-3" d="M282.69,218.73c-1.92-1.32-3.52-1.06-5.3-.24,0-10.13,0-20,0-29.9,0-1.72.77-2.88,2.58-2.89,2,0,2.71,1.3,2.72,3.1Z"/><path class="cls-3" d="M278,226v-4.09c0-1.39.88-1.89,2.08-1.88A1.8,1.8,0,0,1,282.1,222c0,2.63,0,5.25,0,7.88,0,1.35-.74,2.34-2.1,2.32s-2-1-2-2.37S278,227.25,278,226Z"/><path class="cls-3" d="M270.31,159.58c.37-2,1.42-3.41,3.67-3.31a3.2,3.2,0,0,1,3.32,3.62,3.27,3.27,0,0,1-3.61,3.39C271.51,163.2,270.48,161.75,270.31,159.58Z"/><path class="cls-3" d="M261.73,156.21c2.16.2,3.39,1.36,3.37,3.6a3.19,3.19,0,0,1-3.24,3.47,3.25,3.25,0,0,1-3.6-3.45C258.19,157.7,259.42,156.38,261.73,156.21Z"/><path class="cls-3" d="M249.42,156.2c2.46.19,3.67,1.53,3.65,3.6a3.25,3.25,0,0,1-3.51,3.48,3.21,3.21,0,0,1-3.38-3.56A3.34,3.34,0,0,1,249.42,156.2Z"/><path class="cls-3" d="M140.49,157.32h9.42v.93a59.33,59.33,0,0,1-9.52.08Z"/><path class="cls-3" d="M140.45,159.93a37.73,37.73,0,0,1,9.54-.41C148.66,161.15,143.18,161.4,140.45,159.93Z"/><path class="cls-3" d="M149.84,163h-9.42V162a44.1,44.1,0,0,1,9.4.09Z"/><path class="cls-7" d="M231.63,206.84c1,.83,2.26.5,3.41.51,9.33,0,18.66.06,28,0,2,0,2.75.49,2.68,2.6q-.21,6.93,0,13.85c.06,2-.48,2.71-2.6,2.67-6.58-.13-13.16-.06-19.74,0a5,5,0,0,0-3.3.59,4,4,0,0,0,2.94.57c6.78,0,13.56.07,20.34,0,1.75,0,2.43.41,2.36,2.29-.14,4,0,8-.06,12.07,0,3.15-1.53,4.62-4.76,4.63-10,0-20,0-30.06.05-1.77,0-2.38-.47-2.35-2.31,0-2.65.41-5.36-.32-8h-.82c0,2.63-.09,5.27,0,7.89.09,1.74-.37,2.39-2.26,2.38-10.9-.09-21.81-.07-32.71,0-1.61,0-2.26-.38-2.23-2.12.11-4.91.1-9.82,0-14.73,0-1.69.53-2.18,2.18-2.17q16.5.09,33,0c1.56,0,2,.51,2,2,0,1.85-.35,3.78.44,6a4.08,4.08,0,0,0,.69-3.15c.06-4.84,0-4.84,5-4.88.68,0,1.37,0,2.06-.08,2.75,2.59,4.85,5.84,8.09,7.93l.63.54.66.53.59.57.6.61.06.07-.1,0-.59-.6c.11-.41,0-.66-.47-.71-.11-.29-.23-.57-.35-.85l-.48-.53a165.68,165.68,0,0,0-14.65-17.31c1.08,3.31,3.34,5.8,5.08,8.62-6.14.24-6.14.24-6.15-5.93,0-3.59,0-7.19,0-10.78A4,4,0,0,0,231.63,206.84Z"/><path class="cls-7" d="M227.4,209.53c0,4.81-.13,9.63,0,14.44.05,2-.61,2.47-2.51,2.46-10.71-.08-21.42-.1-32.12,0-2.14,0-2.64-.69-2.59-2.69.13-5.4.07-10.81.08-16.21l1.92-.2,12.62,0c3.28,3.62,4.78,8.29,7.34,12.33a12.61,12.61,0,0,0,4.07,4.7,176.87,176.87,0,0,0-12.89-25.63c-2.52-4.14-4.82-4.61-9-2.07-4.66,2.83-8.87,6.28-13.27,9.47-8.39.1-16.79-.55-25.19.28-3.39.33-3.94-.44-3.94-3.9s-.06-7.06,0-10.59c.08-3.35,1.56-4.87,4.93-4.89,10-.06,20,0,30,0,1.63,0,2.27.43,2.2,2.14-.12,2.84,0,5.68,0,8.91,2-2.44,1-5,1.15-7.27.19-4.28-.43-3.73,3.81-3.74,10.3,0,20.6,0,30.91-.05,1.89,0,2.55.48,2.5,2.45-.13,4.31,0,8.63,0,12.95a5.07,5.07,0,0,0-3,3.72H210.58l0,1.24c4.74.1,9.49.05,14.24,0A4.66,4.66,0,0,0,227.4,209.53ZM177.77,203c-4.2-4-6.72-4.57-10.38-2.37Z"/><path class="cls-7" d="M189,207.61c0,5.49-.06,11,.05,16.49,0,1.8-.52,2.34-2.33,2.33q-16.35-.12-32.69,0c-1.65,0-2.22-.49-2.19-2.18.09-4.9,0-9.81,0-14.72,0-1.13,0-2.17,1.6-2.15,8.61,0,17.22.06,25.83.09.7,1.26,1.82.49,2.72.48C184.36,207.92,186.69,207.73,189,207.61Z"/><path class="cls-7" d="M170.65,227.58c5.4,0,10.81,0,16.21,0,1.63,0,2.23.44,2.19,2.14q-.13,7.37,0,14.73c0,1.68-.52,2.17-2.18,2.16-10.11-.07-20.23,0-30.34-.06-2.9,0-4.49-1.43-4.59-4.25-.15-4.32,0-8.64-.08-13-.05-1.86,1.07-1.74,2.29-1.74Z"/><path class="cls-7" d="M228.5,202.28c0-4.31.09-8.63,0-12.95,0-1.73.4-2.4,2.28-2.38,10,.08,20,0,30,.06,3.36,0,4.83,1.54,4.87,4.88,0,3.83-.15,7.66.06,11.48.14,2.39-.87,2.69-2.9,2.68-10.3-.07-20.61,0-30.91,0A4.73,4.73,0,0,0,228.5,202.28Z"/><path class="cls-7" d="M189,207.61c-2.32.12-4.65.31-7,.33-.9,0-2,.78-2.72-.48l1.7-1.35c4.4-3.19,8.61-6.64,13.27-9.47,4.21-2.54,6.51-2.07,9,2.07a176.87,176.87,0,0,1,12.89,25.63,12.61,12.61,0,0,1-4.07-4.7c-2.56-4-4.06-8.71-7.34-12.33-1.66-2.13-3.55-2.89-6.26-1.72a43.22,43.22,0,0,1-6.36,1.75l-1.92.2Z"/><path class="cls-7" d="M228.5,202.28a4.73,4.73,0,0,1,3.41,3.8l-.28.75a4,4,0,0,1-3.14,2.78l-1.09-.08a4.66,4.66,0,0,1-2.62-2.2c-.12-.42-.23-.84-.35-1.26a5.07,5.07,0,0,1,3-3.72Z"/><path class="cls-7" d="M243.69,235.42c-3.24-2.09-5.34-5.34-8.09-7.93l-.93-1.18c-1.74-2.81-4-5.3-5.08-8.61A165.68,165.68,0,0,1,244.24,235Z"/><path class="cls-7" d="M245,236.49l-.66-.53a3.16,3.16,0,0,0,.4-.42c.12.28.24.56.35.85Z"/><path class="cls-7" d="M245.57,237.06l-.59-.57.09-.1c.43.05.58.3.47.71Z"/><polygon class="cls-2" points="246.13 237.7 246.23 237.74 246.17 237.67 246.13 237.7"/><path class="cls-7" d="M244.24,235l.48.53a3.16,3.16,0,0,1-.4.42l-.63-.54Z"/><path class="cls-7" d="M245.54,237.1l.59.6,0,0-.6-.61Z"/><path class="cls-7" d="M192.17,207.34a43.22,43.22,0,0,0,6.36-1.75c2.71-1.17,4.6-.41,6.26,1.72Z"/><path class="cls-7" d="M177.76,203l-10.37-2.37C171.05,198.45,173.57,199,177.76,203Z"/><path class="cls-3" d="M208.77,247.73h-51c-5.37,0-7.07-1.7-7.07-7q0-24,0-48.05c0-4.93,1.86-6.83,6.72-6.83H260.31c4.73,0,6.53,1.85,6.54,6.65q0,24.33,0,48.64c0,5-1.69,6.62-6.79,6.62Zm19.72-38c-.37,0-.72-.25-1.09-.23,0-4.32-.14-15.82,0-20.13.05-2-.61-2.47-2.5-2.45-10.31.08-20.61,0-30.91.05-4.24,0-3.62-.54-3.81,3.74-.11,2.31.86,15.26-1.16,17.7,0-3.23-.08-16.5,0-19.34.07-1.71-.57-2.15-2.2-2.14-10,.06-20,0-30,0-3.37,0-4.85,1.54-4.93,4.89-.08,3.53,0,7.06,0,10.59s.55,4.23,3.94,3.9c8.4-.83,24.11-.1,32.5-.2,4.64-.24,16.59.06,16,.5-8.46,1.07-42.25.73-50.86.68-1.64,0-1.6,1-1.6,2.15,0,4.91.06,9.82,0,14.72,0,1.69.54,2.19,2.19,2.18q16.35-.09,32.69,0c1.81,0,2.36-.53,2.33-2.33-.11-5.5,0-11-.05-16.49.42,0,.86-6.59,1.27-6.61,0,5.4,0,17.35-.11,22.75,0,2,.45,2.71,2.59,2.69,10.7-.11,21.41-.09,32.12,0,1.9,0,2.56-.49,2.51-2.46-.12-4.81,0-9.63,0-14.44l1.09.08c0,3.59,0,7.19,0,10.78,0,6.17,0,6.17,6.15,5.92l.93,1.18c-.69,0-1.38.08-2.06.08-5,0-5,0-5,4.88a4.08,4.08,0,0,1-.69,3.15c-.79-2.24-.46-4.17-.44-6,0-1.52-.45-2-2-2q-16.5.07-33,0c-1.65,0-2.22.48-2.18,2.17.09,4.91.1,9.82,0,14.73,0,1.74.62,2.13,2.23,2.12,10.9,0,21.81-.07,32.71,0,1.89,0,2.35-.64,2.26-2.38-.12-2.62-.05-8.47-.05-11.1.28,0,.94-.13,1.21-.13,0,2.51,0,8.64-.05,11.29,0,1.84.58,2.32,2.35,2.31,10-.07,20,0,30.06-.05,3.23,0,4.72-1.48,4.76-4.63.06-4-.08-8.05.06-12.07.07-1.88-.61-2.31-2.36-2.29-6.78.09-13.56.05-20.34,0-.88,0-9.69.28-10.07-.64-1.05-1.06,9.44-.51,10.43-.52,6.58,0,13.16-.09,19.74,0,2.12,0,2.66-.65,2.6-2.67q-.21-6.92,0-13.85c.07-2.11-.68-2.62-2.68-2.6-9.33.09-18.66.05-28,0-1.15,0-2.38.32-3.41-.52l.28-.75c10.3,0,20.61-.1,30.91,0,2,0,3-.29,2.9-2.68-.21-3.82,0-7.65-.06-11.48,0-3.34-1.51-4.87-4.87-4.88-10,0-20,0-30-.06-1.88,0-2.32.65-2.28,2.38C228.59,193.65,228.49,205.44,228.49,209.76Zm-57.84,17.82h-16.5c-1.22,0-2.34-.12-2.29,1.74.09,4.32-.07,8.64.08,13,.1,2.82,1.69,4.24,4.59,4.25,10.11,0,20.23,0,30.34.06,1.66,0,2.22-.48,2.18-2.16q-.13-7.36,0-14.73c0-1.7-.56-2.17-2.19-2.14C181.46,227.63,176.05,227.58,170.65,227.58Z"/><path class="cls-3" d="M233.83,206.08c.12.42.1.87.21,1.29-4.74,0-18.76,0-23.5-.06,0-.42-13.48-.77-13.46-1.18Z"/></svg>