<svg id="Capa_1" data-name="Capa 1" xmlns="http://www.w3.org/2000/svg" viewBox="0 0 1686.71 936.76"><defs><style>.cls-1{fill:#1d1d1b;}.cls-2{fill:#61b770;}</style></defs><path class="cls-1" d="M207.65,760.87a116.5,116.5,0,0,1-46.6-9.4,121.21,121.21,0,0,1-64-64,116.42,116.42,0,0,1-9.4-46.61V561.18H54.32V493H87.64V385.8h68.15V493H259.51v68.15H155.79v79.67a50.69,50.69,0,0,0,4,20.17,51.34,51.34,0,0,0,11,16.41,52.81,52.81,0,0,0,16.54,11.15,50.3,50.3,0,0,0,20.29,4.14h51.86v68.15Z"/><path class="cls-1" d="M366.25,760.87h-68.4V492.53h16.53l22.55,31.82A121,121,0,0,1,418.11,493h60.38v68.15H418.11a51.85,51.85,0,0,0-20.3,4,50.69,50.69,0,0,0-27.56,27.56,51.79,51.79,0,0,0-4,20.29Z"/><path class="cls-1" d="M617,695.22a38.72,38.72,0,0,0,8,1.63q4,.38,8,.38a67.24,67.24,0,0,0,19.29-2.76,69.61,69.61,0,0,0,17.41-7.89,64.68,64.68,0,0,0,14.53-12.53,65.67,65.67,0,0,0,10.4-16.41L744.82,708a134.8,134.8,0,0,1-21.92,24.3,138.14,138.14,0,0,1-26.81,18.29A133.66,133.66,0,0,1,665.77,762a137.31,137.31,0,0,1-32.69,3.89A135.54,135.54,0,0,1,536.24,726a137.68,137.68,0,0,1-29.44-44.72Q496,655.39,496,624.32q0-31.82,10.77-58.13a131.33,131.33,0,0,1,73-73.66,138.27,138.27,0,0,1,53.24-10.27,134.93,134.93,0,0,1,32.82,4,137.18,137.18,0,0,1,57.37,29.94,136,136,0,0,1,22.05,24.43Zm35.08-141.05a39.77,39.77,0,0,0-9.4-2.26,90.72,90.72,0,0,0-9.64-.5,68.31,68.31,0,0,0-26.44,5.14A62.91,62.91,0,0,0,585.1,571.2a69.1,69.1,0,0,0-14.41,22.93,82,82,0,0,0-5.26,30.19c0,2.5.12,5.35.38,8.52a96.41,96.41,0,0,0,1.25,9.64q.87,4.89,2.13,9.4a35,35,0,0,0,3.25,8Zm-21-92.46-28.31-37.33L677.17,355l41.09,52.37Z"/><path class="cls-1" d="M1048.23,624.32q0,31.56-10.77,57.62a136.87,136.87,0,0,1-29.32,44.73,130.74,130.74,0,0,1-43.47,28.93,139,139,0,0,1-53.49,10.28A135.5,135.5,0,0,1,814.35,726a137.52,137.52,0,0,1-29.44-44.72q-10.78-25.94-10.78-57V385.8h68.65V511.07a62.62,62.62,0,0,1,13.41-12.53,79.9,79.9,0,0,1,17-9,112.27,112.27,0,0,1,18.92-5.38,101,101,0,0,1,19-1.88,134.71,134.71,0,0,1,53.49,10.65,132.92,132.92,0,0,1,43.47,29.69,141.64,141.64,0,0,1,29.32,45Q1048.23,593.51,1048.23,624.32Zm-68.9,0a76.91,76.91,0,0,0-5.39-28.94,72.73,72.73,0,0,0-14.65-23.17,67.21,67.21,0,0,0-21.68-15.29,64.39,64.39,0,0,0-26.43-5.51,58.83,58.83,0,0,0-26.43,6.14,72.87,72.87,0,0,0-21.67,16.28,76.16,76.16,0,0,0-14.53,23.3,72.57,72.57,0,0,0-5.27,27.19,77.43,77.43,0,0,0,5.27,28.81,70.94,70.94,0,0,0,14.53,23,68.76,68.76,0,0,0,21.67,15.41,64.75,64.75,0,0,0,52.86,0,68.8,68.8,0,0,0,21.68-15.41,73,73,0,0,0,14.65-23A75.91,75.91,0,0,0,979.33,624.32Z"/><path class="cls-1" d="M1345.38,624.32a144.57,144.57,0,0,1-10.78,56,140.07,140.07,0,0,1-29.31,44.84A137.06,137.06,0,0,1,1261.82,755a136.08,136.08,0,0,1-106.73,0,137.38,137.38,0,0,1-73-74.66,144.57,144.57,0,0,1-10.77-56q0-30.57,10.77-56.62a138.85,138.85,0,0,1,29.44-45,137,137,0,0,1,43.6-29.69,132.77,132.77,0,0,1,53.24-10.77,140.42,140.42,0,0,1,53.49,10.15,129.22,129.22,0,0,1,43.47,28.81,136.38,136.38,0,0,1,29.31,44.85Q1345.37,592.24,1345.38,624.32Zm-68.9,0a79.66,79.66,0,0,0-5.39-29.94,71.05,71.05,0,0,0-14.66-23,63.28,63.28,0,0,0-21.67-14.78,70.52,70.52,0,0,0-52.86,0,62,62,0,0,0-21.55,14.78,70.47,70.47,0,0,0-14.41,23,81.48,81.48,0,0,0-5.26,29.94,77.63,77.63,0,0,0,5.26,28.81,72.19,72.19,0,0,0,14.41,23,67.25,67.25,0,0,0,21.55,15.41,63,63,0,0,0,26.43,5.64,67.12,67.12,0,0,0,26.43-5.26,65.77,65.77,0,0,0,21.67-14.79,69.28,69.28,0,0,0,14.66-23A79.9,79.9,0,0,0,1276.48,624.32Z"/><path class="cls-2" d="M1410.43,302.38,1324,304.15c-66.78,1.37-103.39,78.33-62.32,131h0c40.31,51.7,122.11,36.72,141.49-25.9l25.56-82.61A18.73,18.73,0,0,0,1410.43,302.38Z"/><path class="cls-2" d="M1441.69,323l11.94,89.28c8.77,65.58,87.28,94.69,136.69,50.69h0c50.47-45,28.44-128.22-37.67-142.33l-88.09-18.81A19.06,19.06,0,0,0,1441.69,323Z"/><path class="cls-2" d="M1470.67,289.41l99.83-28.72c75.41-21.7,94-120,31.61-167.68h0c-60.78-46.47-148.81-6.19-153.37,70.19l-6.19,103.7A22.06,22.06,0,0,0,1470.67,289.41Z"/><path class="cls-2" d="M1401.93,293.75,1274.14,262.6c-83.6-20.38-108.74-127-43-182.59L1244,69.12c64-54.16,162.62-15.29,172.46,68l15.38,130.16A24.3,24.3,0,0,1,1401.93,293.75Z"/><path class="cls-2" d="M1436.06,332.94l6.34,245.34c5.26,82.38,19.94,142.23,34,143.58a66.38,66.38,0,0,0,14.32-.78c7.66-1.21,12.78-3.33,21.59-6.89,5.28-2.13,14-5.63,25.76-10.25-15.91,44.48-51,71.14-84.93,70.67q-22.15-.3-44-20.63C1359.47,711,1395.75,525.31,1436.06,332.94Z"/><path class="cls-1" d="M122.35,869.33V814.56L98,857.11H93.83L69.38,814.56v54.77H62.75V802.05h6.82L95.82,848.1l26.43-46.05H129v67.28Z"/><path class="cls-1" d="M199.76,802.05h5.59l28,67.28h-7l-8.4-21H187.14l-8.41,21h-7.11Zm16,41-13.29-33.26-13.29,33.26Z"/><path class="cls-1" d="M276,869.33V802.05h28.42a17.67,17.67,0,0,1,8,1.8,20.75,20.75,0,0,1,6.31,4.88,23.12,23.12,0,0,1,4.16,6.83,20.68,20.68,0,0,1,1.47,7.62,22.63,22.63,0,0,1-1.84,9.1,20,20,0,0,1-5.22,7.2,17.08,17.08,0,0,1-7.91,3.89l16.49,26h-7.49L302.57,844.5h-19.9v24.83Zm6.63-30.7h22a11.31,11.31,0,0,0,6.92-2.18,14.38,14.38,0,0,0,4.55-5.73,18.11,18.11,0,0,0,1.61-7.54A16,16,0,0,0,311,810.06a11.83,11.83,0,0,0-6.87-2.13H282.67Z"/><path class="cls-1" d="M371,869.33V802.05h6.63v39.1L414.66,802H422l-27.48,29.6,28.9,37.77H415.9l-25.68-33.78-12.61,13.09v20.69Z"/><path class="cls-1" d="M510.17,863.46v5.87H465V802.05h44.34v5.88H471.61v24.26h32.88v5.59H471.61v25.68Z"/><path class="cls-1" d="M603.51,807.93h-24v61.4H572.9v-61.4h-24v-5.88h54.58Z"/><path class="cls-1" d="M646.62,869.33V802.05h6.63v67.28Z"/><path class="cls-1" d="M709.82,814.28v55.05h-6.64V802.05h5.5l44.15,56.1v-56h6.64v67.18h-6.16Z"/><path class="cls-1" d="M836.41,869.8a27.52,27.52,0,0,1-12.51-2.89,32.2,32.2,0,0,1-10-7.81,36.86,36.86,0,0,1-6.58-11A34.62,34.62,0,0,1,805,835.6a36.11,36.11,0,0,1,2.32-12.94,35.27,35.27,0,0,1,6.49-10.85,31,31,0,0,1,9.85-7.48A28.19,28.19,0,0,1,836,801.58q9.94,0,16.2,4.08a26.39,26.39,0,0,1,9.48,10.61l-5.12,3.41a21.05,21.05,0,0,0-8.62-9.19,24.78,24.78,0,0,0-12-2.94,21.31,21.31,0,0,0-10.09,2.37,24.5,24.5,0,0,0-7.72,6.35,28,28,0,0,0-4.88,9,32.89,32.89,0,0,0-1.66,10.42,30.35,30.35,0,0,0,1.9,10.76,28.12,28.12,0,0,0,5.4,9,25.87,25.87,0,0,0,8.1,6.16,22.44,22.44,0,0,0,9.9,2.22,23.37,23.37,0,0,0,11.65-3.08,35.83,35.83,0,0,0,10.52-9.52v7Q849.48,869.81,836.41,869.8ZM858,841.38H843v-5.12H863.6v33.07H858Z"/><path class="cls-1" d="M967.54,869.33V802.05h22.84q10.71,0,17.86,4.51A28.34,28.34,0,0,1,1019,818.68a39.18,39.18,0,0,1,3.6,16.92,38.18,38.18,0,0,1-3.93,17.81,28.23,28.23,0,0,1-11.18,11.75,33.69,33.69,0,0,1-17.1,4.17ZM1016,835.6a32.84,32.84,0,0,0-3-14.31,23,23,0,0,0-8.67-9.81,25.79,25.79,0,0,0-13.93-3.55h-16.2v55.53h16.2a25.22,25.22,0,0,0,14-3.7,23.44,23.44,0,0,0,8.62-10A33.09,33.09,0,0,0,1016,835.6Z"/><path class="cls-1" d="M1068.36,869.33V802.05H1075v67.28Z"/><path class="cls-1" d="M1151.93,869.8a27.58,27.58,0,0,1-12.51-2.89,32.16,32.16,0,0,1-10-7.81,36.89,36.89,0,0,1-6.59-11,34.83,34.83,0,0,1-2.32-12.5,36.33,36.33,0,0,1,2.32-12.94,35.11,35.11,0,0,1,6.5-10.85,30.88,30.88,0,0,1,9.85-7.48,28.18,28.18,0,0,1,12.41-2.75q10,0,16.21,4.08a26.43,26.43,0,0,1,9.47,10.61l-5.12,3.41a21,21,0,0,0-8.62-9.19,24.74,24.74,0,0,0-12-2.94,21.31,21.31,0,0,0-10.09,2.37,24.53,24.53,0,0,0-7.73,6.35,28.43,28.43,0,0,0-4.88,9,33.17,33.17,0,0,0-1.65,10.42,30.57,30.57,0,0,0,1.89,10.76,28.12,28.12,0,0,0,5.4,9,26.1,26.1,0,0,0,8.1,6.16,22.51,22.51,0,0,0,9.91,2.22,23.4,23.4,0,0,0,11.65-3.08,36,36,0,0,0,10.52-9.52v7Q1165,869.81,1151.93,869.8Zm21.61-28.42h-15v-5.12h20.57v33.07h-5.59Z"/><path class="cls-1" d="M1225.84,869.33V802.05h6.63v67.28Z"/><path class="cls-1" d="M1330.16,807.93h-24v61.4h-6.63v-61.4h-24v-5.88h54.58Z"/><path class="cls-1" d="M1387.68,802.05h5.59l28,67.28h-7l-8.41-21h-30.75l-8.41,21h-7.11Zm16,41-13.3-33.26-13.29,33.26Z"/><path class="cls-1" d="M1464,869.33V802.05h6.63v61.41h38.85v5.87Z"/></svg>